<svg xmlns="http://www.w3.org/2000/svg" xmlns:xlink="http://www.w3.org/1999/xlink" xmlns:lucid="lucid" width="1620" height="1272.11"><g transform="translate(-20 0)" lucid:page-tab-id="0_0"><path d="M0 0h1870.87v1322.83H0z" fill="#fff"/><path d="M280 549.7c0-3.33 2.7-6 6-6h148c3.3 0 6 2.67 6 6v68c0 3.3-2.7 6-6 6H286c-3.3 0-6-2.7-6-6z" stroke="#7ab648" stroke-width="3" fill="#d1bcd2"/><path d="M296 543.7v80m128-80v80" stroke="#7ab648" stroke-width="3" fill="none"/><use xlink:href="#a" transform="matrix(1,0,0,1,305,548.6876350565487) translate(8.827160493827165 39.44444444444444)"/><path d="M80 543.7h154c3.3 0 6 2.67 6 6v68c0 3.3-2.7 6-6 6H86c-3.3 0-6-2.7-6-6zm16 0v80m-16-64h160" stroke="#7ab648" stroke-width="3" fill="#fff"/><use xlink:href="#b" transform="matrix(1,0,0,1,101,564.6876350565487) translate(7.185185185185183 31.27777777777778)"/><path d="M280 1106c0-3.3 2.7-6 6-6h132c3.3 0 6 2.7 6 6v70c-24.05-12.7-39.02-12.7-48.1-12.7-14.4 0-33.55 12.7-47.95 12.7-8.93 0-24.05 0-47.95-12.7z" stroke="#83bbe5" stroke-width="3" fill="#fff"/><path d="M288 1112.7c0-3.3 2.7-6 6-6h132c3.3 0 6 2.7 6 6v70c-24.05-12.7-39.02-12.7-48.1-12.7-14.4 0-33.55 12.7-47.95 12.7-8.93 0-24.05 0-47.95-12.7z" stroke="#83bbe5" stroke-width="3" fill="#fff"/><path d="M296 1119.4c0-3.3 2.7-6 6-6h132c3.3 0 6 2.7 6 6v70c-24.05-12.68-39.02-12.68-48.1-12.68-14.4 0-33.55 12.7-47.95 12.7-8.93 0-24.05 0-47.95-12.7z" stroke="#83bbe5" stroke-width="3" fill="#fff"/><use xlink:href="#c" transform="matrix(1,0,0,1,301,1118.4117647058827) translate(14.870370370370374 18.111111111111114)"/><use xlink:href="#d" transform="matrix(1,0,0,1,301,1118.4117647058827) translate(56.78395061728395 18.111111111111114)"/><use xlink:href="#e" transform="matrix(1,0,0,1,301,1118.4117647058827) translate(106.16666666666666 18.111111111111114)"/><use xlink:href="#f" transform="matrix(1,0,0,1,301,1118.4117647058827) translate(31.228395061728392 44.777777777777786)"/><use xlink:href="#g" transform="matrix(1,0,0,1,301,1118.4117647058827) translate(74.43827160493828 44.777777777777786)"/><path d="M280 991.5c0-3.32 2.7-6 6-6h148c3.3 0 6 2.68 6 6v68c0 3.3-2.7 6-6 6H286c-3.3 0-6-2.7-6-6z" stroke="#83bbe5" stroke-width="3" fill="#f9d2de"/><path d="M296 985.5v80m128-80v80" stroke="#83bbe5" stroke-width="3" fill="none"/><use xlink:href="#h" transform="matrix(1,0,0,1,305,990.4986876640421) translate(3.7962962962962976 26.111111111111114)"/><use xlink:href="#i" transform="matrix(1,0,0,1,305,990.4986876640421) translate(1.9753086419753032 52.77777777777778)"/><path d="M208 260c17.67 0 32 14.18 32 31.67 0 17.5-14.33 31.66-32 31.66h-96c-17.67 0-32-14.17-32-31.66 0-17.5 14.33-31.67 32-31.67z" stroke="#5e5e5e" stroke-width="3" fill="#fff"/><use xlink:href="#j" transform="matrix(1,0,0,1,85,264.99999999999994) translate(13.801296296296295 17.77777777777778)"/><use xlink:href="#k" transform="matrix(1,0,0,1,85,264.99999999999994) translate(17.474135802469128 44.44444444444444)"/><path d="M242.5 583.7h4.38m8.75 0h8.75m8.75 0h4.37" stroke="#7ab648" stroke-width="2" fill="none"/><path d="M242.53 584.7h-1.03v-2h1.03zM278.5 584.7h-1.03v-2h1.03z" fill="#7ab648"/><path d="M280 662.02c0-3.3 2.7-6 6-6h148c3.3 0 6 2.7 6 6v74c-26.72-13.36-43.36-13.36-53.44-13.36-16 0-37.28 13.36-53.28 13.36-9.92 0-26.72 0-53.28-13.36z" stroke="#7ab648" stroke-width="3" fill="#fff"/><use xlink:href="#l" transform="matrix(1,0,0,1,285,661.020968389882) translate(28.42592592592593 17.77777777777778)"/><use xlink:href="#m" transform="matrix(1,0,0,1,285,661.020968389882) translate(59.22839506172839 17.77777777777778)"/><use xlink:href="#n" transform="matrix(1,0,0,1,285,661.020968389882) translate(108.61111111111111 17.77777777777778)"/><use xlink:href="#o" transform="matrix(1,0,0,1,285,661.020968389882) translate(36.75925925925926 44.44444444444444)"/><use xlink:href="#p" transform="matrix(1,0,0,1,285,661.020968389882) translate(84.9074074074074 44.44444444444444)"/><path d="M360 500.03v23.66" stroke="#7ab648" stroke-width="2" fill="none"/><path d="M361 500.05h-2v-.8l2-.46z" fill="#7ab648"/><path d="M360 538.95l-4.64-14.26h9.28z" stroke="#7ab648" stroke-width="2" fill="#7ab648"/><path d="M60 446c0-3.3 2.7-6 6-6h188c3.3 0 6 2.7 6 6v30.46c0 3.3-2.7 6-6 6H66c-3.3 0-6-2.7-6-6z" stroke="#000" stroke-opacity="0" stroke-width="3" fill="#fff" fill-opacity="0"/><use xlink:href="#q" transform="matrix(1,0,0,1,65,445.00000000000006) translate(0 24.888888888888886)"/><path d="M360 626.2V636" stroke="#7ab648" stroke-width="2" fill="none"/><path d="M361 626.2h-2v-1h2z" fill="#7ab648"/><path d="M360 651.28l-4.64-14.26h9.28z" stroke="#7ab648" stroke-width="2" fill="#7ab648"/><path d="M280 866c0-3.3 2.7-6 6-6h132c3.3 0 6 2.7 6 6v70c-24.05-12.7-39.02-12.7-48.1-12.7-14.4 0-33.55 12.7-47.95 12.7-8.93 0-24.05 0-47.95-12.7z" stroke="#83bbe5" stroke-width="3" fill="#fff"/><path d="M288 872.7c0-3.3 2.7-6 6-6h132c3.3 0 6 2.7 6 6v70C407.95 930 392.98 930 383.9 930c-14.4 0-33.55 12.7-47.95 12.7-8.93 0-24.05 0-47.95-12.7z" stroke="#83bbe5" stroke-width="3" fill="#fff"/><path d="M296 879.4c0-3.3 2.7-6 6-6h132c3.3 0 6 2.7 6 6v70c-24.05-12.68-39.02-12.68-48.1-12.68-14.4 0-33.55 12.7-47.95 12.7-8.93 0-24.05 0-47.95-12.7z" stroke="#83bbe5" stroke-width="3" fill="#fff"/><use xlink:href="#c" transform="matrix(1,0,0,1,301,878.4117647058823) translate(14.870370370370374 18.111111111111114)"/><use xlink:href="#d" transform="matrix(1,0,0,1,301,878.4117647058823) translate(56.78395061728395 18.111111111111114)"/><use xlink:href="#e" transform="matrix(1,0,0,1,301,878.4117647058823) translate(106.16666666666666 18.111111111111114)"/><use xlink:href="#r" transform="matrix(1,0,0,1,301,878.4117647058823) translate(23.20370370370371 44.777777777777786)"/><use xlink:href="#s" transform="matrix(1,0,0,1,301,878.4117647058823) translate(71.35185185185185 44.777777777777786)"/><path d="M63.5 806c0-3.3 2.7-6 6-6H294c3.3 0 6 2.7 6 6v103.47c0 3.32-2.7 6-6 6H69.5c-3.3 0-6-2.68-6-6z" stroke="#000" stroke-opacity="0" stroke-width="3" fill="#fff" fill-opacity="0"/><use xlink:href="#t" transform="matrix(1,0,0,1,68.51494404551195,805) translate(0 24.888888888888886)"/><use xlink:href="#u" transform="matrix(1,0,0,1,68.51494404551195,805) translate(0 62.222222222222214)"/><use xlink:href="#v" transform="matrix(1,0,0,1,68.51494404551195,805) translate(0 99.55555555555554)"/><path d="M360 948.1v17.4" stroke="#83bbe5" stroke-width="2" fill="none"/><path d="M361 948.14h-2v-.7l2-.67z" fill="#83bbe5"/><path d="M360 980.76l-4.64-14.26h9.28z" stroke="#83bbe5" stroke-width="2" fill="#83bbe5"/><path d="M360 1068v12" stroke="#83bbe5" stroke-width="2" fill="none"/><path d="M361 1068.02h-2V1067h2z" fill="#83bbe5"/><path d="M360 1095.26l-4.64-14.26h9.28z" stroke="#83bbe5" stroke-width="2" fill="#83bbe5"/><path d="M40 26c0-3.3 2.7-6 6-6h428c3.3 0 6 2.7 6 6v104.67c0 3.3-2.7 6-6 6H46c-3.3 0-6-2.7-6-6z" stroke="#000" stroke-opacity="0" stroke-width="3" fill="#fff" fill-opacity="0"/><use xlink:href="#w" transform="matrix(1,0,0,1,45,25) translate(158.39506172839506 35.55555555555556)"/><use xlink:href="#x" transform="matrix(1,0,0,1,45,25) translate(104.25925925925924 88.88888888888889)"/><path d="M620 26c0-3.3 2.7-6 6-6h448c3.3 0 6 2.7 6 6v104.67c0 3.3-2.7 6-6 6H626c-3.3 0-6-2.7-6-6z" stroke="#000" stroke-opacity="0" stroke-width="3" fill="#fff" fill-opacity="0"/><use xlink:href="#y" transform="matrix(1,0,0,1,624.9999999999999,25) translate(74.5679012345679 35.55555555555556)"/><use xlink:href="#z" transform="matrix(1,0,0,1,624.9999999999999,25) translate(227.53086419753086 35.55555555555556)"/><use xlink:href="#A" transform="matrix(1,0,0,1,624.9999999999999,25) translate(103.02469135802467 88.88888888888889)"/><path d="M960 288c0 6.63-26.86 12-60 12s-60-5.37-60-12v-96c0-6.63 26.86-12 60-12s60 5.37 60 12z" stroke="#5e5e5e" stroke-width="3" fill="#fff"/><path d="M960 192c0 6.63-26.86 12-60 12s-60-5.37-60-12" stroke="#5e5e5e" stroke-width="3" fill="none"/><use xlink:href="#B" transform="matrix(1,0,0,1,845,209) translate(2.870370370370374 33.90277777777778)"/><use xlink:href="#m" transform="matrix(1,0,0,1,845,209) translate(44.78395061728395 33.90277777777778)"/><use xlink:href="#C" transform="matrix(1,0,0,1,845,209) translate(94.16666666666666 33.90277777777778)"/><use xlink:href="#D" transform="matrix(1,0,0,1,845,209) translate(11.20370370370371 60.56944444444445)"/><use xlink:href="#E" transform="matrix(1,0,0,1,845,209) translate(59.351851851851855 60.56944444444445)"/><path d="M820 666c0-3.3 2.7-6 6-6h132c3.3 0 6 2.7 6 6v70c-24.05-12.7-39.02-12.7-48.1-12.7-14.4 0-33.55 12.7-47.95 12.7-8.93 0-24.05 0-47.95-12.7z" stroke="#0c7cba" stroke-width="3" fill="#fff"/><path d="M828 672.7c0-3.3 2.7-6 6-6h132c3.3 0 6 2.7 6 6v70C947.95 730 932.98 730 923.9 730c-14.4 0-33.55 12.7-47.95 12.7-8.93 0-24.05 0-47.95-12.7z" stroke="#0c7cba" stroke-width="3" fill="#fff"/><path d="M836 679.4c0-3.3 2.7-6 6-6h132c3.3 0 6 2.7 6 6v70c-24.05-12.68-39.02-12.68-48.1-12.68-14.4 0-33.55 12.7-47.95 12.7-8.93 0-24.05 0-47.95-12.7z" stroke="#0c7cba" stroke-width="3" fill="#fff"/><use xlink:href="#B" transform="matrix(1,0,0,1,841,678.4117647058823) translate(14.870370370370374 18.111111111111114)"/><use xlink:href="#m" transform="matrix(1,0,0,1,841,678.4117647058823) translate(56.78395061728395 18.111111111111114)"/><use xlink:href="#n" transform="matrix(1,0,0,1,841,678.4117647058823) translate(106.16666666666666 18.111111111111114)"/><use xlink:href="#F" transform="matrix(1,0,0,1,841,678.4117647058823) translate(31.228395061728392 44.777777777777786)"/><use xlink:href="#p" transform="matrix(1,0,0,1,841,678.4117647058823) translate(74.43827160493828 44.777777777777786)"/><path d="M820 551.5c0-3.32 2.7-6 6-6h148c3.3 0 6 2.68 6 6v68c0 3.3-2.7 6-6 6H826c-3.3 0-6-2.7-6-6z" stroke="#0c7cba" stroke-width="3" fill="#d1bcd2"/><path d="M836 545.5v80m128-80v80" stroke="#0c7cba" stroke-width="3" fill="none"/><use xlink:href="#G" transform="matrix(1,0,0,1,845,550.4986876640421) translate(0.21604938271604368 26.111111111111114)"/><use xlink:href="#H" transform="matrix(1,0,0,1,845,550.4986876640421) translate(-2.2839506172839563 52.77777777777778)"/><path d="M820 426c0-3.3 2.7-6 6-6h132c3.3 0 6 2.7 6 6v70c-24.05-12.7-39.02-12.7-48.1-12.7-14.4 0-33.55 12.7-47.95 12.7-8.93 0-24.05 0-47.95-12.7z" stroke="#0c7cba" stroke-width="3" fill="#fff"/><path d="M828 432.7c0-3.3 2.7-6 6-6h132c3.3 0 6 2.7 6 6v70C947.95 490 932.98 490 923.9 490c-14.4 0-33.55 12.7-47.95 12.7-8.93 0-24.05 0-47.95-12.7z" stroke="#0c7cba" stroke-width="3" fill="#fff"/><path d="M836 439.4c0-3.3 2.7-6 6-6h132c3.3 0 6 2.7 6 6v70c-24.05-12.68-39.02-12.68-48.1-12.68-14.4 0-33.55 12.7-47.95 12.7-8.93 0-24.05 0-47.95-12.7z" stroke="#0c7cba" stroke-width="3" fill="#fff"/><use xlink:href="#B" transform="matrix(1,0,0,1,841,438.41176470588243) translate(14.870370370370374 18.111111111111114)"/><use xlink:href="#m" transform="matrix(1,0,0,1,841,438.41176470588243) translate(56.78395061728395 18.111111111111114)"/><use xlink:href="#n" transform="matrix(1,0,0,1,841,438.41176470588243) translate(106.16666666666666 18.111111111111114)"/><use xlink:href="#o" transform="matrix(1,0,0,1,841,438.41176470588243) translate(23.20370370370371 44.777777777777786)"/><use xlink:href="#E" transform="matrix(1,0,0,1,841,438.41176470588243) translate(71.35185185185185 44.777777777777786)"/><path d="M603.5 437.47c0-3.3 2.7-6 6-6H794c3.3 0 6 2.7 6 6v32c0 3.32-2.7 6-6 6H609.5c-3.3 0-6-2.68-6-6z" stroke="#000" stroke-opacity="0" stroke-width="3" fill="#fff" fill-opacity="0"/><use xlink:href="#I" transform="matrix(1,0,0,1,608.5149440455119,436.47356007939095) translate(0 27.076388888888886)"/><path d="M900 508.1v17.4" stroke="#0c7cba" stroke-width="2" fill="none"/><path d="M901 508.14h-2v-.7l2-.67z" fill="#0c7cba"/><path d="M900 540.76l-4.64-14.26h9.28z" stroke="#0c7cba" stroke-width="2" fill="#0c7cba"/><path d="M900 628v12" stroke="#0c7cba" stroke-width="2" fill="none"/><path d="M901 628.02h-2V627h2z" fill="#0c7cba"/><path d="M900 655.26L895.36 641h9.28z" stroke="#0c7cba" stroke-width="2" fill="#0c7cba"/><path d="M520 152.18v10m0 9.97v19.96m0 10v19.95m0 9.98V252m0 9.98v19.96m0 9.98v19.96m0 10v19.95m0 9.98v19.97m0 9.98v19.97m0 9.98v19.96m0 9.98v19.96m0 10v19.95m0 9.98v19.96m0 9.97v19.97m0 9.98v19.96m0 9.98v19.96m0 9.98v19.97m0 9.98v19.96m0 10v19.96m0 9.98v19.96m0 9.98v19.96m0 9.98V791m0 9.97v19.96m0 9.98v19.97m0 10v19.95m0 9.98v19.96m0 9.98v19.97m0 10v19.95m0 9.98v19.96m0 9.98v19.96m0 9.98v19.96m0 9.98v19.97m0 9.98v19.97m0 9.98v19.96m0 10v19.96m0 9.98v19.96m0 9.98v19.97m0 9.98v9.98M520 152.2v-1.02M520 1260.08v1.03" stroke="#5e5e5e" stroke-width="2" fill="none"/><path d="M708 220c17.67 0 32 8.95 32 20s-14.33 20-32 20h-96c-17.67 0-32-8.95-32-20s14.33-20 32-20z" stroke="#5e5e5e" stroke-width="3" fill="#fff"/><use xlink:href="#J" transform="matrix(1,0,0,1,585,225) translate(33.09141975308642 19.65277777777778)"/><use xlink:href="#K" transform="matrix(1,0,0,1,585,225) translate(92.28895061728394 19.65277777777778)"/><path d="M708 320c17.67 0 32 8.95 32 20s-14.33 20-32 20h-96c-17.67 0-32-8.95-32-20s14.33-20 32-20z" stroke="#5e5e5e" stroke-width="3" fill="#fff"/><use xlink:href="#L" transform="matrix(1,0,0,1,585,325) translate(18.832160493827168 19.65277777777778)"/><use xlink:href="#M" transform="matrix(1,0,0,1,585,325) translate(76.85685185185186 19.65277777777778)"/><path d="M242.5 291.67H354c3.3 0 6 2.68 6 6V420" stroke="#5e5e5e" stroke-width="2" fill="none"/><path d="M242.53 292.67h-1.1l.07-.95v-.4l-.06-.65h1.1z" fill="#5e5e5e"/><path d="M360 435.26L355.36 421h9.28z" stroke="#5e5e5e" stroke-width="2" fill="#5e5e5e"/><path d="M742.5 240H820" stroke="#5e5e5e" stroke-width="2" fill="none"/><path d="M742.53 241h-1.1l.07-.94v-.23l-.07-.83h1.1z" fill="#5e5e5e"/><path d="M835.26 240L821 244.64v-9.28z" stroke="#5e5e5e" stroke-width="2" fill="#5e5e5e"/><path d="M742.5 340H894c3.3 0 6-2.7 6-6v-31.5" stroke="#5e5e5e" stroke-width="2" fill="none"/><path d="M742.53 341h-1.1l.07-.94v-.23l-.07-.83h1.1zM900 301.5l1-.03v1.06h-2v-1.07z" fill="#5e5e5e"/><path d="M900 302.5V400" stroke="#5e5e5e" stroke-width="2" fill="none"/><path d="M900 301.5l1-.03v1.06h-2v-1.07z" fill="#5e5e5e"/><path d="M900 415.26L895.36 401h9.28z" stroke="#5e5e5e" stroke-width="2" fill="#5e5e5e"/><path d="M1140 147.67v9.98m0 9.98v19.96m0 9.97v19.97m0 9.98v19.96m0 9.98v19.96m0 9.98v19.97m0 9.98v19.96m0 10v19.96m0 9.98v19.96m0 9.98v19.96m0 9.98v19.97m0 9.97v19.96m0 9.98v19.97m0 10v19.95m0 9.98v19.96m0 9.98v19.97m0 10v19.95m0 9.98v19.96m0 9.98v19.96m0 9.98v19.96m0 9.98v19.97m0 9.98v19.97m0 9.98v19.96m0 10v19.96m0 9.98v19.96m0 9.98v19.96m0 10v19.95m0 9.97v19.96m0 9.98v19.98m0 9.98v19.96m0 9.98v19.96m0 10v19.95m0 10v19.95m0 9.98v19.97m0 9.98v19.96m0 9.98v19.96m0 10v19.95m0 9.98v10M1140 147.7v-1.03M1140 1255.56v1.03" stroke="#5e5e5e" stroke-width="2" fill="none"/><path d="M1180 540.17c0-3.32 2.7-6 6-6h184.5c3.3 0 6 2.68 6 6v32c0 3.3-2.7 6-6 6H1186c-3.3 0-6-2.7-6-6z" stroke="#000" stroke-opacity="0" stroke-width="3" fill="#fff" fill-opacity="0"/><use xlink:href="#N" transform="matrix(1,0,0,1,1185,539.1666666666666) translate(0 27.076388888888886)"/><path d="M1231.5 769.4c17.7 0 32 8.97 32 20 0 11.06-14.3 20-32 20h-96c-17.66 0-32-8.94-32-20 0-11.03 14.34-20 32-20z" stroke="#5e5e5e" stroke-width="3" fill="#fff"/><use xlink:href="#O" transform="matrix(1,0,0,1,1108.514944045512,774.4117647058824) translate(26.88771604938271 19.65277777777778)"/><use xlink:href="#P" transform="matrix(1,0,0,1,1108.514944045512,774.4117647058824) translate(94.72722222222222 19.65277777777778)"/><path d="M1231.5 934.93c17.7 0 32 8.95 32 20 0 11.04-14.3 20-32 20h-96c-17.66 0-32-8.96-32-20 0-11.05 14.34-20 32-20z" stroke="#5e5e5e" stroke-width="3" fill="#fff"/><use xlink:href="#Q" transform="matrix(1,0,0,1,1108.514944045512,939.9254470809349) translate(20.06672839506173 19.65277777777778)"/><use xlink:href="#P" transform="matrix(1,0,0,1,1108.514944045512,939.9254470809349) translate(101.54820987654321 19.65277777777778)"/><path d="M820 921.47c0-3.3 2.7-6 6-6h148c3.3 0 6 2.7 6 6v68c0 3.32-2.7 6-6 6H826c-3.3 0-6-2.68-6-6z" stroke="#ffc374" stroke-width="3" fill="#fff"/><path d="M836 915.47v80m128-80v80" stroke="#ffc374" stroke-width="3" fill="none"/><use xlink:href="#R" transform="matrix(1,0,0,1,845,920.4735600793908) translate(-7.2222222222222285 26.111111111111114)"/><use xlink:href="#S" transform="matrix(1,0,0,1,845,920.4735600793908) translate(18.02469135802469 52.77777777777778)"/><path d="M900 748.1v26.28c0 3.3 2.7 6 6 6h180.57" stroke="#5e5e5e" stroke-width="2" fill="none"/><path d="M901 748.14h-2v-.7l2-.67z" fill="#5e5e5e"/><path d="M1101.83 780.38l-14.26 4.64v-9.27z" stroke="#5e5e5e" stroke-width="2" fill="#5e5e5e"/><path d="M900 748.1v147.37" stroke="#5e5e5e" stroke-width="2" fill="none"/><path d="M901 748.14h-2v-.7l2-.67z" fill="#5e5e5e"/><path d="M900 910.74l-4.64-14.27h9.28z" stroke="#5e5e5e" stroke-width="2" fill="#5e5e5e"/><path d="M982.5 955.47H1083.55" stroke="#5e5e5e" stroke-width="2" fill="none"/><path d="M982.53 956.47h-1.03v-2h1.03z" fill="#5e5e5e"/><path d="M1098.8 955.47l-14.25 4.64v-9.26z" stroke="#5e5e5e" stroke-width="2" fill="#5e5e5e"/><path d="M601.76 826c0-3.3 2.68-6 6-6h184.48c3.32 0 6 2.7 6 6v68c0 3.3-2.68 6-6 6H607.76c-3.32 0-6-2.7-6-6z" stroke="#000" stroke-opacity="0" stroke-width="3" fill="#fff" fill-opacity="0"/><use xlink:href="#T" transform="matrix(1,0,0,1,606.757472022756,825) translate(0 24.888888888888886)"/><use xlink:href="#U" transform="matrix(1,0,0,1,606.757472022756,825) translate(0 62.222222222222214)"/><path d="M790 1076.47c0-3.3 2.7-6 6-6h208c3.3 0 6 2.7 6 6v78c0 3.32-2.7 6-6 6H796c-3.3 0-6-2.68-6-6z" stroke="#ffc374" stroke-width="3" fill="#fff"/><path d="M812 1070.47v90m176-90v90" stroke="#ffc374" stroke-width="3" fill="none"/><use xlink:href="#V" transform="matrix(1,0,0,1,822.5,1075.473560079391) translate(4.691358024691354 31.111111111111114)"/><use xlink:href="#W" transform="matrix(1,0,0,1,822.5,1075.473560079391) translate(97.22222222222223 31.111111111111114)"/><use xlink:href="#X" transform="matrix(1,0,0,1,822.5,1075.473560079391) translate(14.629629629629619 57.77777777777778)"/><path d="M900 997.97v52.5" stroke="#ffc374" stroke-width="2" fill="none"/><path d="M901 998h-2v-1.03h2z" fill="#ffc374"/><path d="M900 1065.74l-4.64-14.27h9.28z" stroke="#ffc374" stroke-width="2" fill="#ffc374"/><path d="M1231.5 1089.3c17.7 0 32 14.18 32 31.67 0 17.5-14.3 31.67-32 31.67h-96c-17.66 0-32-14.18-32-31.67 0-17.5 14.34-31.66 32-31.66z" stroke="#5e5e5e" stroke-width="3" fill="#fff"/><use xlink:href="#Y" transform="matrix(1,0,0,1,1108.514944045512,1094.3055810767667) translate(12.751913580246901 17.77777777777778)"/><use xlink:href="#Z" transform="matrix(1,0,0,1,1108.514944045512,1094.3055810767667) translate(36.79512345679012 44.44444444444444)"/><path d="M1012.5 1115.47h71.5" stroke="#5e5e5e" stroke-width="2" fill="none"/><path d="M1012.53 1116.47h-1.03v-2h1.03z" fill="#5e5e5e"/><path d="M1099.26 1115.47l-14.27 4.64v-9.26z" stroke="#5e5e5e" stroke-width="2" fill="#5e5e5e"/><path d="M1240 835.4c0-3.3 2.7-6 6-6h228c3.3 0 6 2.7 6 6v68c0 3.33-2.7 6-6 6h-228c-3.3 0-6-2.67-6-6z" stroke="#000" stroke-opacity="0" stroke-width="3" fill="#fff" fill-opacity="0"/><use xlink:href="#T" transform="matrix(1,0,0,1,1245,834.4117647058823) translate(0 24.888888888888886)"/><use xlink:href="#aa" transform="matrix(1,0,0,1,1245,834.4117647058823) translate(0 62.222222222222214)"/><path d="M1400 1081.97c0-3.3 2.7-6 6-6h208c3.3 0 6 2.7 6 6v78c0 3.32-2.7 6-6 6h-208c-3.3 0-6-2.68-6-6z" stroke="#ffc374" stroke-width="3" fill="#fff"/><path d="M1422 1075.97v90m176-90v90" stroke="#ffc374" stroke-width="3" fill="none"/><use xlink:href="#ab" transform="matrix(1,0,0,1,1432.5,1080.9722477434334) translate(49.72222222222222 31.111111111111114)"/><use xlink:href="#ac" transform="matrix(1,0,0,1,1432.5,1080.9722477434334) translate(2.283950617283949 57.77777777777778)"/><path d="M1266 1120.97h114" stroke="#5e5e5e" stroke-width="2" fill="none"/><path d="M1266.04 1121.97h-1.1l.08-.94v-.4l-.06-.66h1.08z" fill="#5e5e5e"/><path d="M1395.26 1120.97l-14.26 4.64v-9.26z" stroke="#5e5e5e" stroke-width="2" fill="#5e5e5e"/><path d="M1430 921.47c0-3.3 2.7-6 6-6h148c3.3 0 6 2.7 6 6v68c0 3.32-2.7 6-6 6h-148c-3.3 0-6-2.68-6-6z" stroke="#ffc374" stroke-width="3" fill="#fff"/><path d="M1446 915.47v80m128-80v80" stroke="#ffc374" stroke-width="3" fill="none"/><g><use xlink:href="#ad" transform="matrix(1,0,0,1,1455,920.4735600793911) translate(22.345679012345684 26.111111111111114)"/><use xlink:href="#ae" transform="matrix(1,0,0,1,1455,920.4735600793911) translate(4.413580246913575 52.77777777777778)"/></g><path d="M1266 954.93h80.48c.15 0 .28.12.28.27 0 .15.12.27.27.27H1410" stroke="#5e5e5e" stroke-width="2" fill="none"/><path d="M1266.04 955.93h-1.1l.08-.95v-.23l-.08-.82h1.1z" fill="#5e5e5e"/><path d="M1425.26 955.47L1411 960.1v-9.26z" stroke="#5e5e5e" stroke-width="2" fill="#5e5e5e"/><path d="M1510 1073.47v-58" stroke="#ffc374" stroke-width="2" fill="none"/><path d="M1511 1074.47h-2v-1.02h2z" fill="#ffc374"/><path d="M1510 1000.2l4.64 14.28h-9.28z" stroke="#ffc374" stroke-width="2" fill="#ffc374"/><path d="M1430 666c0-3.3 2.7-6 6-6h132c3.3 0 6 2.7 6 6v70c-24.05-12.7-39.02-12.7-48.1-12.7-14.4 0-33.55 12.7-47.95 12.7-8.93 0-24.05 0-47.95-12.7z" stroke="#c92d39" stroke-width="3" fill="#fff"/><path d="M1438 672.7c0-3.3 2.7-6 6-6h132c3.3 0 6 2.7 6 6v70c-24.05-12.7-39.02-12.7-48.1-12.7-14.4 0-33.55 12.7-47.95 12.7-8.93 0-24.05 0-47.95-12.7z" stroke="#c92d39" stroke-width="3" fill="#fff"/><path d="M1446 679.4c0-3.3 2.7-6 6-6h132c3.3 0 6 2.7 6 6v70c-24.05-12.68-39.02-12.68-48.1-12.68-14.4 0-33.55 12.7-47.95 12.7-8.93 0-24.05 0-47.95-12.7z" stroke="#c92d39" stroke-width="3" fill="#fff"/><g><use xlink:href="#B" transform="matrix(1,0,0,1,1451,678.4117647058823) translate(14.870370370370374 18.111111111111114)"/><use xlink:href="#m" transform="matrix(1,0,0,1,1451,678.4117647058823) translate(56.78395061728395 18.111111111111114)"/><use xlink:href="#n" transform="matrix(1,0,0,1,1451,678.4117647058823) translate(106.16666666666666 18.111111111111114)"/><use xlink:href="#F" transform="matrix(1,0,0,1,1451,678.4117647058823) translate(31.228395061728392 44.777777777777786)"/><use xlink:href="#p" transform="matrix(1,0,0,1,1451,678.4117647058823) translate(74.43827160493828 44.777777777777786)"/></g><path d="M1510 912.97V765.6" stroke="#5e5e5e" stroke-width="2" fill="none"/><path d="M1511 913.97h-2v-1.02h2z" fill="#5e5e5e"/><path d="M1510 750.35l4.64 14.26h-9.28z" stroke="#5e5e5e" stroke-width="2" fill="#5e5e5e"/><path d="M1266 789.4h238c3.3 0 6-2.67 6-6v-17.8" stroke="#5e5e5e" stroke-width="2" fill="none"/><path d="M1266.04 790.4h-1.1l.08-.93v-.23l-.08-.83h1.1z" fill="#5e5e5e"/><path d="M1510 750.35l4.64 14.26h-9.28z" stroke="#5e5e5e" stroke-width="2" fill="#5e5e5e"/><path d="M1430 551.5c0-3.32 2.7-6 6-6h148c3.3 0 6 2.68 6 6v68c0 3.3-2.7 6-6 6h-148c-3.3 0-6-2.7-6-6z" stroke="#c92d39" stroke-width="3" fill="#d1bcd2"/><path d="M1446 545.5v80m128-80v80" stroke="#c92d39" stroke-width="3" fill="none"/><g><use xlink:href="#af" transform="matrix(1,0,0,1,1455,550.4986876640421) translate(24.783950617283953 26.111111111111114)"/><use xlink:href="#ag" transform="matrix(1,0,0,1,1455,550.4986876640421) translate(-0.40123456790124123 52.77777777777778)"/></g><path d="M1510 657.5v-12" stroke="#c92d39" stroke-width="2" fill="none"/><path d="M1511 658.5h-2v-1.03h2z" fill="#c92d39"/><path d="M1510 630.23l4.64 14.27h-9.28z" stroke="#c92d39" stroke-width="2" fill="#c92d39"/><path d="M1180 332.53c0-3.32 2.7-6 6-6h184.5c3.3 0 6 2.68 6 6v32c0 3.3-2.7 6-6 6H1186c-3.3 0-6-2.7-6-6z" stroke="#000" stroke-opacity="0" stroke-width="3" fill="#fff" fill-opacity="0"/><g><use xlink:href="#ah" transform="matrix(1,0,0,1,1185,331.52643992060916) translate(0 27.076388888888886)"/></g><path d="M1430 321c0-3.3 2.7-6 6-6h148c3.3 0 6 2.7 6 6v78c0 3.3-2.7 6-6 6h-148c-3.3 0-6-2.7-6-6z" stroke="#c92d39" stroke-width="3" fill="#fff"/><path d="M1446 315v90m128-90v90" stroke="#c92d39" stroke-width="3" fill="none"/><g><use xlink:href="#ai" transform="matrix(1,0,0,1,1455,320) translate(13.086419753086417 31.111111111111114)"/><use xlink:href="#aj" transform="matrix(1,0,0,1,1455,320) translate(4.938271604938265 57.77777777777778)"/><use xlink:href="#ak" transform="matrix(1,0,0,1,1455,320) translate(71.85185185185185 57.77777777777778)"/></g><path d="M1220 26c0-3.3 2.7-6 6-6h348c3.3 0 6 2.7 6 6v104.67c0 3.3-2.7 6-6 6h-348c-3.3 0-6-2.7-6-6z" stroke="#000" stroke-opacity="0" stroke-width="3" fill="#fff" fill-opacity="0"/><g><use xlink:href="#al" transform="matrix(1,0,0,1,1225,25) translate(14.753086419753089 35.55555555555556)"/><use xlink:href="#am" transform="matrix(1,0,0,1,1225,25) translate(145.37037037037035 35.55555555555556)"/><use xlink:href="#an" transform="matrix(1,0,0,1,1225,25) translate(68.02469135802468 88.88888888888889)"/></g><path d="M280 446c0-3.3 2.7-6 6-6h148c3.3 0 6 2.7 6 6v57.04c-26.72-10.53-43.36-10.53-53.44-10.53-16 0-37.28 10.54-53.28 10.54-9.92 0-26.72 0-53.28-10.53z" stroke="#7ab648" stroke-width="3" fill="#fff"/><g><use xlink:href="#l" transform="matrix(1,0,0,1,285,445.00000000000006) translate(37.99382716049383 25.84027777777778)"/><use xlink:href="#ao" transform="matrix(1,0,0,1,285,445.00000000000006) translate(68.79629629629629 25.84027777777778)"/></g><path d="M1510 543V425" stroke="#c92d39" stroke-width="2" fill="none"/><path d="M1511 544h-2v-1.03h2z" fill="#c92d39"/><path d="M1510 409.74l4.64 14.26h-9.28z" stroke="#c92d39" stroke-width="2" fill="#c92d39"/><path d="M442.5 696.2H504c3.3 0 6-2.67 6-6V246c0-3.3 2.7-6 6-6h44" stroke="#5e5e5e" stroke-width="2" fill="none"/><path d="M442.53 697.2h-1.03v-2h1.03z" fill="#5e5e5e"/><path d="M575.26 240L561 244.64v-9.28z" stroke="#5e5e5e" stroke-width="2" fill="#5e5e5e"/><defs><path fill="#333" d="M182-130c37 4 62 22 62 59C244 23 116-4 24 0v-248c84 5 203-23 205 63 0 31-19 50-47 55zM76-148c40-3 101 13 101-30 0-44-60-28-101-31v61zm0 110c48-3 116 14 116-37 0-48-69-32-116-35v72" id="ap"/><path fill="#333" d="M24 0v-248h52v208h133V0H24" id="aq"/><path fill="#333" d="M169-182c-1-43-94-46-97-3 18 66 151 10 154 114 3 95-165 93-204 36-6-8-10-19-12-30l50-8c3 46 112 56 116 5-17-69-150-10-154-114-4-87 153-88 188-35 5 8 8 18 10 28" id="ar"/><path fill="#333" d="M25-224v-37h50v37H25zM25 0v-190h50V0H25" id="as"/><path fill="#333" d="M195-6C206 82 75 100 31 46c-4-6-6-13-8-21l49-6c3 16 16 24 34 25 40 0 42-37 40-79-11 22-30 35-61 35-53 0-70-43-70-97 0-56 18-96 73-97 30 0 46 14 59 34l2-30h47zm-90-29c32 0 41-27 41-63 0-35-9-62-40-62-32 0-39 29-40 63 0 36 9 62 39 62" id="at"/><path fill="#333" d="M135-194c87-1 58 113 63 194h-50c-7-57 23-157-34-157-59 0-34 97-39 157H25l-1-190h47c2 12-1 28 3 38 12-26 28-41 61-42" id="au"/><g id="a"><use transform="matrix(0.06172839506172839,0,0,0.06172839506172839,0,0)" xlink:href="#ap"/><use transform="matrix(0.06172839506172839,0,0,0.06172839506172839,15.987654320987653,0)" xlink:href="#aq"/><use transform="matrix(0.06172839506172839,0,0,0.06172839506172839,29.50617283950617,0)" xlink:href="#ar"/><use transform="matrix(0.06172839506172839,0,0,0.06172839506172839,44.32098765432099,0)" xlink:href="#ar"/><use transform="matrix(0.06172839506172839,0,0,0.06172839506172839,59.1358024691358,0)" xlink:href="#as"/><use transform="matrix(0.06172839506172839,0,0,0.06172839506172839,65.30864197530863,0)" xlink:href="#at"/><use transform="matrix(0.06172839506172839,0,0,0.06172839506172839,78.82716049382715,0)" xlink:href="#au"/></g><path fill="#333" d="M160-131c35 5 61 23 61 61C221 17 115-2 30 0v-248c76 3 177-17 177 60 0 33-19 50-47 57zm-97-11c50-1 110 9 110-42 0-47-63-36-110-37v79zm0 115c55-2 124 14 124-45 0-56-70-42-124-44v89" id="av"/><path fill="#333" d="M30 0v-248h33v221h125V0H30" id="aw"/><path fill="#333" d="M185-189c-5-48-123-54-124 2 14 75 158 14 163 119 3 78-121 87-175 55-17-10-28-26-33-46l33-7c5 56 141 63 141-1 0-78-155-14-162-118-5-82 145-84 179-34 5 7 8 16 11 25" id="ax"/><path fill="#333" d="M194 0L95-120 63-95V0H30v-248h33v124l119-124h40L117-140 236 0h-42" id="ay"/><path fill="#333" d="M100-194c63 0 86 42 84 106H49c0 40 14 67 53 68 26 1 43-12 49-29l28 8c-11 28-37 45-77 45C44 4 14-33 15-96c1-61 26-98 85-98zm52 81c6-60-76-77-97-28-3 7-6 17-6 28h103" id="az"/><path fill="#333" d="M179-190L93 31C79 59 56 82 12 73V49c39 6 53-20 64-50L1-190h34L92-34l54-156h33" id="aA"/><path fill="#333" d="M30-248c87 1 191-15 191 75 0 78-77 80-158 76V0H30v-248zm33 125c57 0 124 11 124-50 0-59-68-47-124-48v98" id="aB"/><path fill="#333" d="M141-36C126-15 110 5 73 4 37 3 15-17 15-53c-1-64 63-63 125-63 3-35-9-54-41-54-24 1-41 7-42 31l-33-3c5-37 33-52 76-52 45 0 72 20 72 64v82c-1 20 7 32 28 27v20c-31 9-61-2-59-35zM48-53c0 20 12 33 32 33 41-3 63-29 60-74-43 2-92-5-92 41" id="aC"/><path fill="#333" d="M24-231v-30h32v30H24zM24 0v-190h32V0H24" id="aD"/><path fill="#333" d="M114-163C36-179 61-72 57 0H25l-1-190h30c1 12-1 29 2 39 6-27 23-49 58-41v29" id="aE"/><g id="b"><use transform="matrix(0.06172839506172839,0,0,0.06172839506172839,0,0)" xlink:href="#av"/><use transform="matrix(0.06172839506172839,0,0,0.06172839506172839,14.814814814814813,0)" xlink:href="#aw"/><use transform="matrix(0.06172839506172839,0,0,0.06172839506172839,27.160493827160494,0)" xlink:href="#ax"/><use transform="matrix(0.06172839506172839,0,0,0.06172839506172839,41.9753086419753,0)" xlink:href="#ay"/><use transform="matrix(0.06172839506172839,0,0,0.06172839506172839,56.79012345679011,0)" xlink:href="#az"/><use transform="matrix(0.06172839506172839,0,0,0.06172839506172839,69.1358024691358,0)" xlink:href="#aA"/><use transform="matrix(0.06172839506172839,0,0,0.06172839506172839,80.24691358024691,0)" xlink:href="#aB"/><use transform="matrix(0.06172839506172839,0,0,0.06172839506172839,95.06172839506172,0)" xlink:href="#aC"/><use transform="matrix(0.06172839506172839,0,0,0.06172839506172839,107.4074074074074,0)" xlink:href="#aD"/><use transform="matrix(0.06172839506172839,0,0,0.06172839506172839,112.28395061728395,0)" xlink:href="#aE"/></g><path fill="#999" d="M127-220V0H93v-220H8v-28h204v28h-85" id="aF"/><path fill="#999" d="M141 0L90-78 38 0H4l68-98-65-92h35l48 74 47-74h35l-64 92 68 98h-35" id="aG"/><path fill="#999" d="M135-143c-3-34-86-38-87 0 15 53 115 12 119 90S17 21 10-45l28-5c4 36 97 45 98 0-10-56-113-15-118-90-4-57 82-63 122-42 12 7 21 19 24 35" id="aH"/><g id="c"><use transform="matrix(0.06172839506172839,0,0,0.06172839506172839,0,0)" xlink:href="#aF"/><use transform="matrix(0.06172839506172839,0,0,0.06172839506172839,13.518518518518517,0)" xlink:href="#aG"/><use transform="matrix(0.06172839506172839,0,0,0.06172839506172839,24.629629629629626,0)" xlink:href="#aH"/></g><path fill="#999" d="M85-194c31 0 48 13 60 33l-1-100h32l1 261h-30c-2-10 0-23-3-31C134-8 116 4 85 4 32 4 16-35 15-94c0-66 23-100 70-100zm9 24c-40 0-46 34-46 75 0 40 6 74 45 74 42 0 51-32 51-76 0-42-9-74-50-73" id="aI"/><path fill="#999" d="M141-36C126-15 110 5 73 4 37 3 15-17 15-53c-1-64 63-63 125-63 3-35-9-54-41-54-24 1-41 7-42 31l-33-3c5-37 33-52 76-52 45 0 72 20 72 64v82c-1 20 7 32 28 27v20c-31 9-61-2-59-35zM48-53c0 20 12 33 32 33 41-3 63-29 60-74-43 2-92-5-92 41" id="aJ"/><path fill="#999" d="M59-47c-2 24 18 29 38 22v24C64 9 27 4 27-40v-127H5v-23h24l9-43h21v43h35v23H59v120" id="aK"/><g id="d"><use transform="matrix(0.06172839506172839,0,0,0.06172839506172839,0,0)" xlink:href="#aI"/><use transform="matrix(0.06172839506172839,0,0,0.06172839506172839,12.345679012345679,0)" xlink:href="#aJ"/><use transform="matrix(0.06172839506172839,0,0,0.06172839506172839,24.691358024691358,0)" xlink:href="#aK"/><use transform="matrix(0.06172839506172839,0,0,0.06172839506172839,30.864197530864196,0)" xlink:href="#aJ"/></g><path fill="#999" d="M118-107v75H92v-75H18v-26h74v-75h26v75h74v26h-74" id="aL"/><use transform="matrix(0.06172839506172839,0,0,0.06172839506172839,0,0)" xlink:href="#aL" id="e"/><path fill="#999" d="M177-190C167-65 218 103 67 71c-23-6-38-20-44-43l32-5c15 47 100 32 89-28v-30C133-14 115 1 83 1 29 1 15-40 15-95c0-56 16-97 71-98 29-1 48 16 59 35 1-10 0-23 2-32h30zM94-22c36 0 50-32 50-73 0-42-14-75-50-75-39 0-46 34-46 75s6 73 46 73" id="aM"/><g id="f"><use transform="matrix(0.06172839506172839,0,0,0.06172839506172839,0,0)" xlink:href="#aJ"/><use transform="matrix(0.06172839506172839,0,0,0.06172839506172839,12.345679012345679,0)" xlink:href="#aM"/><use transform="matrix(0.06172839506172839,0,0,0.06172839506172839,24.691358024691358,0)" xlink:href="#aM"/></g><path fill="#999" d="M24-231v-30h32v30H24zM24 0v-190h32V0H24" id="aN"/><g id="g"><use transform="matrix(0.06172839506172839,0,0,0.06172839506172839,0,0)" xlink:href="#aH"/><use transform="matrix(0.06172839506172839,0,0,0.06172839506172839,11.11111111111111,0)" xlink:href="#aN"/><use transform="matrix(0.06172839506172839,0,0,0.06172839506172839,15.987654320987653,0)" xlink:href="#aM"/></g><path fill="#999" d="M205 0l-28-72H64L36 0H1l101-248h38L239 0h-34zm-38-99l-47-123c-12 45-31 82-46 123h93" id="aO"/><path fill="#999" d="M114-163C36-179 61-72 57 0H25l-1-190h30c1 12-1 29 2 39 6-27 23-49 58-41v29" id="aP"/><path fill="#999" d="M100-194c63 0 86 42 84 106H49c0 40 14 67 53 68 26 1 43-12 49-29l28 8c-11 28-37 45-77 45C44 4 14-33 15-96c1-61 26-98 85-98zm52 81c6-60-76-77-97-28-3 7-6 17-6 28h103" id="aQ"/><g id="h"><use transform="matrix(0.06172839506172839,0,0,0.06172839506172839,0,0)" xlink:href="#aO"/><use transform="matrix(0.06172839506172839,0,0,0.06172839506172839,14.814814814814813,0)" xlink:href="#aM"/><use transform="matrix(0.06172839506172839,0,0,0.06172839506172839,27.160493827160494,0)" xlink:href="#aM"/><use transform="matrix(0.06172839506172839,0,0,0.06172839506172839,39.50617283950617,0)" xlink:href="#aP"/><use transform="matrix(0.06172839506172839,0,0,0.06172839506172839,46.85185185185185,0)" xlink:href="#aQ"/><use transform="matrix(0.06172839506172839,0,0,0.06172839506172839,59.197530864197525,0)" xlink:href="#aM"/><use transform="matrix(0.06172839506172839,0,0,0.06172839506172839,71.5432098765432,0)" xlink:href="#aJ"/><use transform="matrix(0.06172839506172839,0,0,0.06172839506172839,83.88888888888889,0)" xlink:href="#aK"/><use transform="matrix(0.06172839506172839,0,0,0.06172839506172839,90.06172839506172,0)" xlink:href="#aQ"/></g><path fill="#999" d="M185-189c-5-48-123-54-124 2 14 75 158 14 163 119 3 78-121 87-175 55-17-10-28-26-33-46l33-7c5 56 141 63 141-1 0-78-155-14-162-118-5-82 145-84 179-34 5 7 8 16 11 25" id="aR"/><path fill="#999" d="M117-194c89-4 53 116 60 194h-32v-121c0-31-8-49-39-48C34-167 62-67 57 0H25l-1-190h30c1 10-1 24 2 32 11-22 29-35 61-36" id="aS"/><path fill="#999" d="M84 4C-5 8 30-112 23-190h32v120c0 31 7 50 39 49 72-2 45-101 50-169h31l1 190h-30c-1-10 1-25-2-33-11 22-28 36-60 37" id="aT"/><g id="i"><use transform="matrix(0.06172839506172839,0,0,0.06172839506172839,0,0)" xlink:href="#aR"/><use transform="matrix(0.06172839506172839,0,0,0.06172839506172839,14.814814814814813,0)" xlink:href="#aN"/><use transform="matrix(0.06172839506172839,0,0,0.06172839506172839,19.691358024691354,0)" xlink:href="#aM"/><use transform="matrix(0.06172839506172839,0,0,0.06172839506172839,32.03703703703703,0)" xlink:href="#aS"/><use transform="matrix(0.06172839506172839,0,0,0.06172839506172839,44.38271604938271,0)" xlink:href="#aJ"/><use transform="matrix(0.06172839506172839,0,0,0.06172839506172839,56.728395061728385,0)" xlink:href="#aK"/><use transform="matrix(0.06172839506172839,0,0,0.06172839506172839,62.90123456790123,0)" xlink:href="#aT"/><use transform="matrix(0.06172839506172839,0,0,0.06172839506172839,75.24691358024691,0)" xlink:href="#aP"/><use transform="matrix(0.06172839506172839,0,0,0.06172839506172839,82.5925925925926,0)" xlink:href="#aQ"/><use transform="matrix(0.06172839506172839,0,0,0.06172839506172839,94.93827160493828,0)" xlink:href="#aH"/></g><path fill="#333" d="M30-248c118-7 216 8 213 122C240-48 200 0 122 0H30v-248zM63-27c89 8 146-16 146-99s-60-101-146-95v194" id="aU"/><path fill="#333" d="M205 0l-28-72H64L36 0H1l101-248h38L239 0h-34zm-38-99l-47-123c-12 45-31 82-46 123h93" id="aV"/><path fill="#333" d="M115-194c55 1 70 41 70 98S169 2 115 4C84 4 66-9 55-30l1 105H24l-1-265h31l2 30c10-21 28-34 59-34zm-8 174c40 0 45-34 45-75s-6-73-45-74c-42 0-51 32-51 76 0 43 10 73 51 73" id="aW"/><path fill="#333" d="M0 4l72-265h28L28 4H0" id="aX"/><path fill="#333" d="M266 0h-40l-56-210L115 0H75L2-248h35L96-30l15-64 43-154h32l59 218 59-218h35" id="aY"/><path fill="#333" d="M24 0v-261h32V0H24" id="aZ"/><path fill="#333" d="M59-47c-2 24 18 29 38 22v24C64 9 27 4 27-40v-127H5v-23h24l9-43h21v43h35v23H59v120" id="ba"/><g id="j"><use transform="matrix(0.06172839506172839,0,0,0.06172839506172839,0,0)" xlink:href="#aU"/><use transform="matrix(0.06172839506172839,0,0,0.06172839506172839,15.987654320987653,0)" xlink:href="#aV"/><use transform="matrix(0.06172839506172839,0,0,0.06172839506172839,30.80246913580247,0)" xlink:href="#aW"/><use transform="matrix(0.06172839506172839,0,0,0.06172839506172839,43.148148148148145,0)" xlink:href="#aW"/><use transform="matrix(0.06172839506172839,0,0,0.06172839506172839,55.49382716049382,0)" xlink:href="#aX"/><use transform="matrix(0.06172839506172839,0,0,0.06172839506172839,61.666666666666664,0)" xlink:href="#aY"/><use transform="matrix(0.06172839506172839,0,0,0.06172839506172839,81.79012345679013,0)" xlink:href="#aC"/><use transform="matrix(0.06172839506172839,0,0,0.06172839506172839,94.13580246913581,0)" xlink:href="#aZ"/><use transform="matrix(0.06172839506172839,0,0,0.06172839506172839,99.01234567901236,0)" xlink:href="#aZ"/><use transform="matrix(0.06172839506172839,0,0,0.06172839506172839,103.8888888888889,0)" xlink:href="#az"/><use transform="matrix(0.06172839506172839,0,0,0.06172839506172839,116.23456790123458,0)" xlink:href="#ba"/></g><path fill="#333" d="M127-220V0H93v-220H8v-28h204v28h-85" id="bb"/><path fill="#333" d="M117-194c89-4 53 116 60 194h-32v-121c0-31-8-49-39-48C34-167 62-67 57 0H25l-1-190h30c1 10-1 24 2 32 11-22 29-35 61-36" id="bc"/><path fill="#333" d="M135-143c-3-34-86-38-87 0 15 53 115 12 119 90S17 21 10-45l28-5c4 36 97 45 98 0-10-56-113-15-118-90-4-57 82-63 122-42 12 7 21 19 24 35" id="bd"/><path fill="#333" d="M96-169c-40 0-48 33-48 73s9 75 48 75c24 0 41-14 43-38l32 2c-6 37-31 61-74 61-59 0-76-41-82-99-10-93 101-131 147-64 4 7 5 14 7 22l-32 3c-4-21-16-35-41-35" id="be"/><path fill="#333" d="M100-194c62-1 85 37 85 99 1 63-27 99-86 99S16-35 15-95c0-66 28-99 85-99zM99-20c44 1 53-31 53-75 0-43-8-75-51-75s-53 32-53 75 10 74 51 75" id="bf"/><g id="k"><use transform="matrix(0.06172839506172839,0,0,0.06172839506172839,0,0)" xlink:href="#bb"/><use transform="matrix(0.06172839506172839,0,0,0.06172839506172839,12.716049382716047,0)" xlink:href="#aE"/><use transform="matrix(0.06172839506172839,0,0,0.06172839506172839,20.061728395061728,0)" xlink:href="#aC"/><use transform="matrix(0.06172839506172839,0,0,0.06172839506172839,32.407407407407405,0)" xlink:href="#bc"/><use transform="matrix(0.06172839506172839,0,0,0.06172839506172839,44.75308641975308,0)" xlink:href="#bd"/><use transform="matrix(0.06172839506172839,0,0,0.06172839506172839,55.86419753086419,0)" xlink:href="#aC"/><use transform="matrix(0.06172839506172839,0,0,0.06172839506172839,68.20987654320987,0)" xlink:href="#be"/><use transform="matrix(0.06172839506172839,0,0,0.06172839506172839,79.32098765432099,0)" xlink:href="#ba"/><use transform="matrix(0.06172839506172839,0,0,0.06172839506172839,85.49382716049382,0)" xlink:href="#aD"/><use transform="matrix(0.06172839506172839,0,0,0.06172839506172839,90.37037037037037,0)" xlink:href="#bf"/><use transform="matrix(0.06172839506172839,0,0,0.06172839506172839,102.71604938271605,0)" xlink:href="#bc"/></g><path fill="#333" d="M141 0L90-78 38 0H4l68-98-65-92h35l48 74 47-74h35l-64 92 68 98h-35" id="bg"/><g id="l"><use transform="matrix(0.06172839506172839,0,0,0.06172839506172839,0,0)" xlink:href="#bb"/><use transform="matrix(0.06172839506172839,0,0,0.06172839506172839,13.518518518518517,0)" xlink:href="#bg"/></g><path fill="#333" d="M85-194c31 0 48 13 60 33l-1-100h32l1 261h-30c-2-10 0-23-3-31C134-8 116 4 85 4 32 4 16-35 15-94c0-66 23-100 70-100zm9 24c-40 0-46 34-46 75 0 40 6 74 45 74 42 0 51-32 51-76 0-42-9-74-50-73" id="bh"/><g id="m"><use transform="matrix(0.06172839506172839,0,0,0.06172839506172839,0,0)" xlink:href="#bh"/><use transform="matrix(0.06172839506172839,0,0,0.06172839506172839,12.345679012345679,0)" xlink:href="#aC"/><use transform="matrix(0.06172839506172839,0,0,0.06172839506172839,24.691358024691358,0)" xlink:href="#ba"/><use transform="matrix(0.06172839506172839,0,0,0.06172839506172839,30.864197530864196,0)" xlink:href="#aC"/></g><path fill="#333" d="M118-107v75H92v-75H18v-26h74v-75h26v75h74v26h-74" id="bi"/><use transform="matrix(0.06172839506172839,0,0,0.06172839506172839,0,0)" xlink:href="#bi" id="n"/><g id="o"><use transform="matrix(0.06172839506172839,0,0,0.06172839506172839,0,0)" xlink:href="#av"/><use transform="matrix(0.06172839506172839,0,0,0.06172839506172839,14.814814814814813,0)" xlink:href="#aw"/><use transform="matrix(0.06172839506172839,0,0,0.06172839506172839,27.160493827160494,0)" xlink:href="#ax"/></g><path fill="#333" d="M177-190C167-65 218 103 67 71c-23-6-38-20-44-43l32-5c15 47 100 32 89-28v-30C133-14 115 1 83 1 29 1 15-40 15-95c0-56 16-97 71-98 29-1 48 16 59 35 1-10 0-23 2-32h30zM94-22c36 0 50-32 50-73 0-42-14-75-50-75-39 0-46 34-46 75s6 73 46 73" id="bj"/><g id="p"><use transform="matrix(0.06172839506172839,0,0,0.06172839506172839,0,0)" xlink:href="#bd"/><use transform="matrix(0.06172839506172839,0,0,0.06172839506172839,11.11111111111111,0)" xlink:href="#aD"/><use transform="matrix(0.06172839506172839,0,0,0.06172839506172839,15.987654320987653,0)" xlink:href="#bj"/></g><g id="q"><use transform="matrix(0.08641975308641973,0,0,0.08641975308641973,0,0)" xlink:href="#ax"/><use transform="matrix(0.08641975308641973,0,0,0.08641975308641973,20.740740740740737,0)" xlink:href="#aD"/><use transform="matrix(0.08641975308641973,0,0,0.08641975308641973,27.567901234567895,0)" xlink:href="#bj"/><use transform="matrix(0.08641975308641973,0,0,0.08641975308641973,44.85185185185184,0)" xlink:href="#bc"/><use transform="matrix(0.08641975308641973,0,0,0.08641975308641973,62.13580246913578,0)" xlink:href="#aD"/><use transform="matrix(0.08641975308641973,0,0,0.08641975308641973,68.96296296296295,0)" xlink:href="#bc"/><use transform="matrix(0.08641975308641973,0,0,0.08641975308641973,86.2469135802469,0)" xlink:href="#bj"/></g><path fill="#999" d="M160-131c35 5 61 23 61 61C221 17 115-2 30 0v-248c76 3 177-17 177 60 0 33-19 50-47 57zm-97-11c50-1 110 9 110-42 0-47-63-36-110-37v79zm0 115c55-2 124 14 124-45 0-56-70-42-124-44v89" id="bk"/><path fill="#999" d="M30 0v-248h33v221h125V0H30" id="bl"/><g id="r"><use transform="matrix(0.06172839506172839,0,0,0.06172839506172839,0,0)" xlink:href="#bk"/><use transform="matrix(0.06172839506172839,0,0,0.06172839506172839,14.814814814814813,0)" xlink:href="#bl"/><use transform="matrix(0.06172839506172839,0,0,0.06172839506172839,27.160493827160494,0)" xlink:href="#aR"/></g><g id="s"><use transform="matrix(0.06172839506172839,0,0,0.06172839506172839,0,0)" xlink:href="#aH"/><use transform="matrix(0.06172839506172839,0,0,0.06172839506172839,11.11111111111111,0)" xlink:href="#aN"/><use transform="matrix(0.06172839506172839,0,0,0.06172839506172839,15.987654320987653,0)" xlink:href="#aM"/><use transform="matrix(0.06172839506172839,0,0,0.06172839506172839,28.333333333333332,0)" xlink:href="#aH"/></g><path fill="#999" d="M140-251c81 0 123 46 123 126C263-46 219 4 140 4 59 4 17-45 17-125s42-126 123-126zm0 227c63 0 89-41 89-101s-29-99-89-99c-61 0-89 39-89 99S79-25 140-24" id="bm"/><path fill="#999" d="M115-194c55 1 70 41 70 98S169 2 115 4C84 4 66-9 55-30l1 105H24l-1-265h31l2 30c10-21 28-34 59-34zm-8 174c40 0 45-34 45-75s-6-73-45-74c-42 0-51 32-51 76 0 43 10 73 51 73" id="bn"/><path fill="#999" d="M100-194c62-1 85 37 85 99 1 63-27 99-86 99S16-35 15-95c0-66 28-99 85-99zM99-20c44 1 53-31 53-75 0-43-8-75-51-75s-53 32-53 75 10 74 51 75" id="bo"/><path fill="#999" d="M24 0v-261h32V0H24" id="bp"/><g id="t"><use transform="matrix(0.08641975308641973,0,0,0.08641975308641973,0,0)" xlink:href="#bm"/><use transform="matrix(0.08641975308641973,0,0,0.08641975308641973,24.197530864197525,0)" xlink:href="#bn"/><use transform="matrix(0.08641975308641973,0,0,0.08641975308641973,41.48148148148147,0)" xlink:href="#aK"/><use transform="matrix(0.08641975308641973,0,0,0.08641975308641973,50.12345679012345,0)" xlink:href="#aN"/><use transform="matrix(0.08641975308641973,0,0,0.08641975308641973,56.95061728395059,0)" xlink:href="#bo"/><use transform="matrix(0.08641975308641973,0,0,0.08641975308641973,74.23456790123454,0)" xlink:href="#aS"/><use transform="matrix(0.08641975308641973,0,0,0.08641975308641973,91.5185185185185,0)" xlink:href="#aJ"/><use transform="matrix(0.08641975308641973,0,0,0.08641975308641973,108.80246913580244,0)" xlink:href="#bp"/></g><path fill="#999" d="M96-169c-40 0-48 33-48 73s9 75 48 75c24 0 41-14 43-38l32 2c-6 37-31 61-74 61-59 0-76-41-82-99-10-93 101-131 147-64 4 7 5 14 7 22l-32 3c-4-21-16-35-41-35" id="bq"/><g id="u"><use transform="matrix(0.08641975308641973,0,0,0.08641975308641973,0,0)" xlink:href="#bl"/><use transform="matrix(0.08641975308641973,0,0,0.08641975308641973,17.283950617283946,0)" xlink:href="#bo"/><use transform="matrix(0.08641975308641973,0,0,0.08641975308641973,34.56790123456789,0)" xlink:href="#bq"/><use transform="matrix(0.08641975308641973,0,0,0.08641975308641973,50.12345679012345,0)" xlink:href="#aJ"/><use transform="matrix(0.08641975308641973,0,0,0.08641975308641973,67.40740740740739,0)" xlink:href="#bp"/></g><g id="v"><use transform="matrix(0.08641975308641973,0,0,0.08641975308641973,0,0)" xlink:href="#aO"/><use transform="matrix(0.08641975308641973,0,0,0.08641975308641973,20.740740740740737,0)" xlink:href="#aM"/><use transform="matrix(0.08641975308641973,0,0,0.08641975308641973,38.02469135802468,0)" xlink:href="#aM"/><use transform="matrix(0.08641975308641973,0,0,0.08641975308641973,55.30864197530863,0)" xlink:href="#aP"/><use transform="matrix(0.08641975308641973,0,0,0.08641975308641973,65.59259259259258,0)" xlink:href="#aQ"/><use transform="matrix(0.08641975308641973,0,0,0.08641975308641973,82.87654320987653,0)" xlink:href="#aM"/><use transform="matrix(0.08641975308641973,0,0,0.08641975308641973,100.16049382716047,0)" xlink:href="#aJ"/><use transform="matrix(0.08641975308641973,0,0,0.08641975308641973,117.44444444444441,0)" xlink:href="#aK"/><use transform="matrix(0.08641975308641973,0,0,0.08641975308641973,126.08641975308642,0)" xlink:href="#aN"/><use transform="matrix(0.08641975308641973,0,0,0.08641975308641973,132.91358024691357,0)" xlink:href="#bo"/><use transform="matrix(0.08641975308641973,0,0,0.08641975308641973,150.19753086419752,0)" xlink:href="#aS"/></g><path fill="#333" d="M212-179c-10-28-35-45-73-45-59 0-87 40-87 99 0 60 29 101 89 101 43 0 62-24 78-52l27 14C228-24 195 4 139 4 59 4 22-46 18-125c-6-104 99-153 187-111 19 9 31 26 39 46" id="br"/><g id="w"><use transform="matrix(0.12345679012345678,0,0,0.12345679012345678,0,0)" xlink:href="#br"/><use transform="matrix(0.12345679012345678,0,0,0.12345679012345678,31.975308641975307,0)" xlink:href="#aZ"/><use transform="matrix(0.12345679012345678,0,0,0.12345679012345678,41.72839506172839,0)" xlink:href="#aD"/><use transform="matrix(0.12345679012345678,0,0,0.12345679012345678,51.48148148148148,0)" xlink:href="#az"/><use transform="matrix(0.12345679012345678,0,0,0.12345679012345678,76.17283950617283,0)" xlink:href="#bc"/><use transform="matrix(0.12345679012345678,0,0,0.12345679012345678,100.86419753086419,0)" xlink:href="#ba"/></g><path fill="#333" d="M87 75C49 33 22-17 22-94c0-76 28-126 65-167h31c-38 41-64 92-64 168S80 34 118 75H87" id="bs"/><path fill="#333" d="M115-194c53 0 69 39 70 98 0 66-23 100-70 100C84 3 66-7 56-30L54 0H23l1-261h32v101c10-23 28-34 59-34zm-8 174c40 0 45-34 45-75 0-40-5-75-45-74-42 0-51 32-51 76 0 43 10 73 51 73" id="bt"/><path fill="#333" d="M16-82v-28h88v28H16" id="bu"/><path fill="#333" d="M33-261c38 41 65 92 65 168S71 34 33 75H2C39 34 66-17 66-93S39-220 2-261h31" id="bv"/><g id="x"><use transform="matrix(0.12345679012345678,0,0,0.12345679012345678,0,0)" xlink:href="#bs"/><use transform="matrix(0.12345679012345678,0,0,0.12345679012345678,14.691358024691358,0)" xlink:href="#bt"/><use transform="matrix(0.12345679012345678,0,0,0.12345679012345678,39.382716049382715,0)" xlink:href="#aZ"/><use transform="matrix(0.12345679012345678,0,0,0.12345679012345678,49.1358024691358,0)" xlink:href="#bd"/><use transform="matrix(0.12345679012345678,0,0,0.12345679012345678,71.35802469135803,0)" xlink:href="#bu"/><use transform="matrix(0.12345679012345678,0,0,0.12345679012345678,86.04938271604938,0)" xlink:href="#bd"/><use transform="matrix(0.12345679012345678,0,0,0.12345679012345678,108.2716049382716,0)" xlink:href="#aD"/><use transform="matrix(0.12345679012345678,0,0,0.12345679012345678,118.02469135802468,0)" xlink:href="#bj"/><use transform="matrix(0.12345679012345678,0,0,0.12345679012345678,142.71604938271605,0)" xlink:href="#bc"/><use transform="matrix(0.12345679012345678,0,0,0.12345679012345678,167.40740740740742,0)" xlink:href="#az"/><use transform="matrix(0.12345679012345678,0,0,0.12345679012345678,192.0987654320988,0)" xlink:href="#aE"/><use transform="matrix(0.12345679012345678,0,0,0.12345679012345678,206.79012345679016,0)" xlink:href="#bv"/></g><path fill="#333" d="M197 0v-115H63V0H30v-248h33v105h134v-105h34V0h-34" id="bw"/><g id="y"><use transform="matrix(0.12345679012345678,0,0,0.12345679012345678,0,0)" xlink:href="#bw"/><use transform="matrix(0.12345679012345678,0,0,0.12345679012345678,31.975308641975307,0)" xlink:href="#bf"/><use transform="matrix(0.12345679012345678,0,0,0.12345679012345678,56.666666666666664,0)" xlink:href="#bd"/><use transform="matrix(0.12345679012345678,0,0,0.12345679012345678,78.88888888888889,0)" xlink:href="#ba"/><use transform="matrix(0.12345679012345678,0,0,0.12345679012345678,91.23456790123457,0)" xlink:href="#az"/><use transform="matrix(0.12345679012345678,0,0,0.12345679012345678,115.92592592592592,0)" xlink:href="#bh"/></g><path fill="#333" d="M108 0H70L1-190h34L89-25l56-165h34" id="bx"/><g id="z"><use transform="matrix(0.12345679012345678,0,0,0.12345679012345678,0,0)" xlink:href="#ax"/><use transform="matrix(0.12345679012345678,0,0,0.12345679012345678,29.629629629629626,0)" xlink:href="#az"/><use transform="matrix(0.12345679012345678,0,0,0.12345679012345678,54.32098765432099,0)" xlink:href="#aE"/><use transform="matrix(0.12345679012345678,0,0,0.12345679012345678,69.01234567901234,0)" xlink:href="#bx"/><use transform="matrix(0.12345679012345678,0,0,0.12345679012345678,91.23456790123456,0)" xlink:href="#aD"/><use transform="matrix(0.12345679012345678,0,0,0.12345679012345678,100.98765432098764,0)" xlink:href="#be"/><use transform="matrix(0.12345679012345678,0,0,0.12345679012345678,123.20987654320987,0)" xlink:href="#az"/></g><g id="A"><use transform="matrix(0.12345679012345678,0,0,0.12345679012345678,0,0)" xlink:href="#bs"/><use transform="matrix(0.12345679012345678,0,0,0.12345679012345678,14.691358024691358,0)" xlink:href="#aC"/><use transform="matrix(0.12345679012345678,0,0,0.12345679012345678,39.382716049382715,0)" xlink:href="#bj"/><use transform="matrix(0.12345679012345678,0,0,0.12345679012345678,64.07407407407408,0)" xlink:href="#bj"/><use transform="matrix(0.12345679012345678,0,0,0.12345679012345678,88.76543209876543,0)" xlink:href="#aE"/><use transform="matrix(0.12345679012345678,0,0,0.12345679012345678,103.45679012345678,0)" xlink:href="#az"/><use transform="matrix(0.12345679012345678,0,0,0.12345679012345678,128.14814814814815,0)" xlink:href="#bj"/><use transform="matrix(0.12345679012345678,0,0,0.12345679012345678,152.83950617283952,0)" xlink:href="#aC"/><use transform="matrix(0.12345679012345678,0,0,0.12345679012345678,177.5308641975309,0)" xlink:href="#ba"/><use transform="matrix(0.12345679012345678,0,0,0.12345679012345678,189.87654320987656,0)" xlink:href="#bf"/><use transform="matrix(0.12345679012345678,0,0,0.12345679012345678,214.56790123456793,0)" xlink:href="#aE"/><use transform="matrix(0.12345679012345678,0,0,0.12345679012345678,229.2592592592593,0)" xlink:href="#bv"/></g><g id="B"><use transform="matrix(0.06172839506172839,0,0,0.06172839506172839,0,0)" xlink:href="#bb"/><use transform="matrix(0.06172839506172839,0,0,0.06172839506172839,13.518518518518517,0)" xlink:href="#bg"/><use transform="matrix(0.06172839506172839,0,0,0.06172839506172839,24.629629629629626,0)" xlink:href="#bd"/></g><use transform="matrix(0.06172839506172839,0,0,0.06172839506172839,0,0)" xlink:href="#bi" id="C"/><g id="D"><use transform="matrix(0.06172839506172839,0,0,0.06172839506172839,0,0)" xlink:href="#av"/><use transform="matrix(0.06172839506172839,0,0,0.06172839506172839,14.814814814814813,0)" xlink:href="#aw"/><use transform="matrix(0.06172839506172839,0,0,0.06172839506172839,27.160493827160494,0)" xlink:href="#ax"/></g><g id="E"><use transform="matrix(0.06172839506172839,0,0,0.06172839506172839,0,0)" xlink:href="#bd"/><use transform="matrix(0.06172839506172839,0,0,0.06172839506172839,11.11111111111111,0)" xlink:href="#aD"/><use transform="matrix(0.06172839506172839,0,0,0.06172839506172839,15.987654320987653,0)" xlink:href="#bj"/><use transform="matrix(0.06172839506172839,0,0,0.06172839506172839,28.333333333333332,0)" xlink:href="#bd"/></g><g id="F"><use transform="matrix(0.06172839506172839,0,0,0.06172839506172839,0,0)" xlink:href="#aC"/><use transform="matrix(0.06172839506172839,0,0,0.06172839506172839,12.345679012345679,0)" xlink:href="#bj"/><use transform="matrix(0.06172839506172839,0,0,0.06172839506172839,24.691358024691358,0)" xlink:href="#bj"/></g><path fill="#333" d="M199 0l-22-63H83L61 0H9l90-248h61L250 0h-51zm-33-102l-36-108c-10 38-24 72-36 108h72" id="by"/><path fill="#333" d="M135-150c-39-12-60 13-60 57V0H25l-1-190h47c2 13-1 29 3 40 6-28 27-53 61-41v41" id="bz"/><path fill="#333" d="M185-48c-13 30-37 53-82 52C43 2 14-33 14-96s30-98 90-98c62 0 83 45 84 108H66c0 31 8 55 39 56 18 0 30-7 34-22zm-45-69c5-46-57-63-70-21-2 6-4 13-4 21h74" id="bA"/><path fill="#333" d="M133-34C117-15 103 5 69 4 32 3 11-16 11-54c-1-60 55-63 116-61 1-26-3-47-28-47-18 1-26 9-28 27l-52-2c7-38 36-58 82-57s74 22 75 68l1 82c-1 14 12 18 25 15v27c-30 8-71 5-69-32zm-48 3c29 0 43-24 42-57-32 0-66-3-65 30 0 17 8 27 23 27" id="bB"/><path fill="#333" d="M115-3C79 11 28 4 28-45v-112H4v-33h27l15-45h31v45h36v33H77v99c-1 23 16 31 38 25v30" id="bC"/><g id="G"><use transform="matrix(0.06172839506172839,0,0,0.06172839506172839,0,0)" xlink:href="#by"/><use transform="matrix(0.06172839506172839,0,0,0.06172839506172839,15.987654320987653,0)" xlink:href="#at"/><use transform="matrix(0.06172839506172839,0,0,0.06172839506172839,29.50617283950617,0)" xlink:href="#at"/><use transform="matrix(0.06172839506172839,0,0,0.06172839506172839,43.02469135802469,0)" xlink:href="#bz"/><use transform="matrix(0.06172839506172839,0,0,0.06172839506172839,51.666666666666664,0)" xlink:href="#bA"/><use transform="matrix(0.06172839506172839,0,0,0.06172839506172839,64.01234567901234,0)" xlink:href="#at"/><use transform="matrix(0.06172839506172839,0,0,0.06172839506172839,77.53086419753086,0)" xlink:href="#bB"/><use transform="matrix(0.06172839506172839,0,0,0.06172839506172839,89.87654320987654,0)" xlink:href="#bC"/><use transform="matrix(0.06172839506172839,0,0,0.06172839506172839,97.22222222222223,0)" xlink:href="#bA"/></g><path fill="#333" d="M85 4C-2 5 27-109 22-190h50c7 57-23 150 33 157 60-5 35-97 40-157h50l1 190h-47c-2-12 1-28-3-38-12 25-28 42-61 42" id="bD"/><path fill="#333" d="M137-138c1-29-70-34-71-4 15 46 118 7 119 86 1 83-164 76-172 9l43-7c4 19 20 25 44 25 33 8 57-30 24-41C81-84 22-81 20-136c-2-80 154-74 161-7" id="bE"/><g id="H"><use transform="matrix(0.06172839506172839,0,0,0.06172839506172839,0,0)" xlink:href="#ar"/><use transform="matrix(0.06172839506172839,0,0,0.06172839506172839,14.814814814814813,0)" xlink:href="#as"/><use transform="matrix(0.06172839506172839,0,0,0.06172839506172839,20.98765432098765,0)" xlink:href="#at"/><use transform="matrix(0.06172839506172839,0,0,0.06172839506172839,34.50617283950617,0)" xlink:href="#au"/><use transform="matrix(0.06172839506172839,0,0,0.06172839506172839,48.02469135802469,0)" xlink:href="#bB"/><use transform="matrix(0.06172839506172839,0,0,0.06172839506172839,60.37037037037037,0)" xlink:href="#bC"/><use transform="matrix(0.06172839506172839,0,0,0.06172839506172839,67.71604938271605,0)" xlink:href="#bD"/><use transform="matrix(0.06172839506172839,0,0,0.06172839506172839,81.23456790123457,0)" xlink:href="#bz"/><use transform="matrix(0.06172839506172839,0,0,0.06172839506172839,89.87654320987654,0)" xlink:href="#bA"/><use transform="matrix(0.06172839506172839,0,0,0.06172839506172839,102.22222222222223,0)" xlink:href="#bE"/></g><g id="I"><use transform="matrix(0.08641975308641973,0,0,0.08641975308641973,0,0)" xlink:href="#aV"/><use transform="matrix(0.08641975308641973,0,0,0.08641975308641973,20.740740740740737,0)" xlink:href="#bj"/><use transform="matrix(0.08641975308641973,0,0,0.08641975308641973,38.02469135802468,0)" xlink:href="#bj"/><use transform="matrix(0.08641975308641973,0,0,0.08641975308641973,55.30864197530863,0)" xlink:href="#aE"/><use transform="matrix(0.08641975308641973,0,0,0.08641975308641973,65.59259259259258,0)" xlink:href="#az"/><use transform="matrix(0.08641975308641973,0,0,0.08641975308641973,82.87654320987653,0)" xlink:href="#bj"/><use transform="matrix(0.08641975308641973,0,0,0.08641975308641973,100.16049382716047,0)" xlink:href="#aC"/><use transform="matrix(0.08641975308641973,0,0,0.08641975308641973,117.44444444444441,0)" xlink:href="#ba"/><use transform="matrix(0.08641975308641973,0,0,0.08641975308641973,126.08641975308642,0)" xlink:href="#aD"/><use transform="matrix(0.08641975308641973,0,0,0.08641975308641973,132.91358024691357,0)" xlink:href="#bf"/><use transform="matrix(0.08641975308641973,0,0,0.08641975308641973,150.19753086419752,0)" xlink:href="#bc"/></g><g id="J"><use transform="matrix(0.06172839506172839,0,0,0.06172839506172839,0,0)" xlink:href="#ax"/><use transform="matrix(0.06172839506172839,0,0,0.06172839506172839,14.814814814814813,0)" xlink:href="#ba"/><use transform="matrix(0.06172839506172839,0,0,0.06172839506172839,20.98765432098765,0)" xlink:href="#bf"/><use transform="matrix(0.06172839506172839,0,0,0.06172839506172839,33.33333333333333,0)" xlink:href="#aE"/><use transform="matrix(0.06172839506172839,0,0,0.06172839506172839,40.679012345679006,0)" xlink:href="#az"/></g><g id="K"><use transform="matrix(0.06172839506172839,0,0,0.06172839506172839,0,0)" xlink:href="#bb"/><use transform="matrix(0.06172839506172839,0,0,0.06172839506172839,13.518518518518517,0)" xlink:href="#bg"/></g><g id="L"><use transform="matrix(0.06172839506172839,0,0,0.06172839506172839,0,0)" xlink:href="#ax"/><use transform="matrix(0.06172839506172839,0,0,0.06172839506172839,14.814814814814813,0)" xlink:href="#az"/><use transform="matrix(0.06172839506172839,0,0,0.06172839506172839,27.160493827160494,0)" xlink:href="#bc"/><use transform="matrix(0.06172839506172839,0,0,0.06172839506172839,39.50617283950617,0)" xlink:href="#bh"/></g><path fill="#333" d="M106-169C34-169 62-67 57 0H25v-261h32l-1 103c12-21 28-36 61-36 89 0 53 116 60 194h-32v-121c2-32-8-49-39-48" id="bF"/><g id="M"><use transform="matrix(0.06172839506172839,0,0,0.06172839506172839,0,0)" xlink:href="#bt"/><use transform="matrix(0.06172839506172839,0,0,0.06172839506172839,12.345679012345679,0)" xlink:href="#aC"/><use transform="matrix(0.06172839506172839,0,0,0.06172839506172839,24.691358024691358,0)" xlink:href="#ba"/><use transform="matrix(0.06172839506172839,0,0,0.06172839506172839,30.864197530864196,0)" xlink:href="#be"/><use transform="matrix(0.06172839506172839,0,0,0.06172839506172839,41.9753086419753,0)" xlink:href="#bF"/></g><path fill="#333" d="M137 0h-34L2-248h35l83 218 83-218h36" id="bG"/><path fill="#333" d="M101-234c-31-9-42 10-38 44h38v23H63V0H32v-167H5v-23h27c-7-52 17-82 69-68v24" id="bH"/><g id="N"><use transform="matrix(0.08641975308641973,0,0,0.08641975308641973,0,0)" xlink:href="#bG"/><use transform="matrix(0.08641975308641973,0,0,0.08641975308641973,19.01234567901234,0)" xlink:href="#az"/><use transform="matrix(0.08641975308641973,0,0,0.08641975308641973,36.29629629629629,0)" xlink:href="#aE"/><use transform="matrix(0.08641975308641973,0,0,0.08641975308641973,46.58024691358024,0)" xlink:href="#aD"/><use transform="matrix(0.08641975308641973,0,0,0.08641975308641973,53.4074074074074,0)" xlink:href="#bH"/><use transform="matrix(0.08641975308641973,0,0,0.08641975308641973,62.04938271604937,0)" xlink:href="#aD"/><use transform="matrix(0.08641975308641973,0,0,0.08641975308641973,68.87654320987653,0)" xlink:href="#be"/><use transform="matrix(0.08641975308641973,0,0,0.08641975308641973,84.43209876543209,0)" xlink:href="#aC"/><use transform="matrix(0.08641975308641973,0,0,0.08641975308641973,101.71604938271602,0)" xlink:href="#ba"/><use transform="matrix(0.08641975308641973,0,0,0.08641975308641973,110.35802469135803,0)" xlink:href="#aD"/><use transform="matrix(0.08641975308641973,0,0,0.08641975308641973,117.18518518518518,0)" xlink:href="#bf"/><use transform="matrix(0.08641975308641973,0,0,0.08641975308641973,134.4691358024691,0)" xlink:href="#bc"/></g><g id="O"><use transform="matrix(0.06172839506172839,0,0,0.06172839506172839,0,0)" xlink:href="#aV"/><use transform="matrix(0.06172839506172839,0,0,0.06172839506172839,14.814814814814813,0)" xlink:href="#be"/><use transform="matrix(0.06172839506172839,0,0,0.06172839506172839,25.925925925925924,0)" xlink:href="#ba"/><use transform="matrix(0.06172839506172839,0,0,0.06172839506172839,32.098765432098766,0)" xlink:href="#aD"/><use transform="matrix(0.06172839506172839,0,0,0.06172839506172839,36.97530864197531,0)" xlink:href="#bf"/><use transform="matrix(0.06172839506172839,0,0,0.06172839506172839,49.32098765432099,0)" xlink:href="#bc"/></g><g id="P"><use transform="matrix(0.06172839506172839,0,0,0.06172839506172839,0,0)" xlink:href="#ba"/><use transform="matrix(0.06172839506172839,0,0,0.06172839506172839,6.172839506172839,0)" xlink:href="#bg"/><use transform="matrix(0.06172839506172839,0,0,0.06172839506172839,17.28395061728395,0)" xlink:href="#bd"/></g><path fill="#333" d="M30 0v-248h187v28H63v79h144v27H63v87h162V0H30" id="bI"/><g id="Q"><use transform="matrix(0.06172839506172839,0,0,0.06172839506172839,0,0)" xlink:href="#bI"/><use transform="matrix(0.06172839506172839,0,0,0.06172839506172839,14.814814814814813,0)" xlink:href="#bg"/><use transform="matrix(0.06172839506172839,0,0,0.06172839506172839,25.925925925925924,0)" xlink:href="#aW"/><use transform="matrix(0.06172839506172839,0,0,0.06172839506172839,38.2716049382716,0)" xlink:href="#aC"/><use transform="matrix(0.06172839506172839,0,0,0.06172839506172839,50.61728395061728,0)" xlink:href="#bc"/><use transform="matrix(0.06172839506172839,0,0,0.06172839506172839,62.962962962962955,0)" xlink:href="#bh"/></g><path fill="#333" d="M84 4C-5 8 30-112 23-190h32v120c0 31 7 50 39 49 72-2 45-101 50-169h31l1 190h-30c-1-10 1-25-2-33-11 22-28 36-60 37" id="bJ"/><g id="R"><use transform="matrix(0.06172839506172839,0,0,0.06172839506172839,0,0)" xlink:href="#aU"/><use transform="matrix(0.06172839506172839,0,0,0.06172839506172839,15.987654320987653,0)" xlink:href="#az"/><use transform="matrix(0.06172839506172839,0,0,0.06172839506172839,28.333333333333332,0)" xlink:href="#bu"/><use transform="matrix(0.06172839506172839,0,0,0.06172839506172839,35.67901234567901,0)" xlink:href="#bh"/><use transform="matrix(0.06172839506172839,0,0,0.06172839506172839,48.02469135802469,0)" xlink:href="#bJ"/><use transform="matrix(0.06172839506172839,0,0,0.06172839506172839,60.37037037037037,0)" xlink:href="#aW"/><use transform="matrix(0.06172839506172839,0,0,0.06172839506172839,72.71604938271605,0)" xlink:href="#aZ"/><use transform="matrix(0.06172839506172839,0,0,0.06172839506172839,77.5925925925926,0)" xlink:href="#aD"/><use transform="matrix(0.06172839506172839,0,0,0.06172839506172839,82.46913580246914,0)" xlink:href="#be"/><use transform="matrix(0.06172839506172839,0,0,0.06172839506172839,93.58024691358025,0)" xlink:href="#aC"/><use transform="matrix(0.06172839506172839,0,0,0.06172839506172839,105.92592592592594,0)" xlink:href="#ba"/><use transform="matrix(0.06172839506172839,0,0,0.06172839506172839,112.09876543209877,0)" xlink:href="#az"/></g><path fill="#333" d="M210-169c-67 3-38 105-44 169h-31v-121c0-29-5-50-35-48C34-165 62-65 56 0H25l-1-190h30c1 10-1 24 2 32 10-44 99-50 107 0 11-21 27-35 58-36 85-2 47 119 55 194h-31v-121c0-29-5-49-35-48" id="bK"/><g id="S"><use transform="matrix(0.06172839506172839,0,0,0.06172839506172839,0,0)" xlink:href="#aW"/><use transform="matrix(0.06172839506172839,0,0,0.06172839506172839,12.345679012345679,0)" xlink:href="#aC"/><use transform="matrix(0.06172839506172839,0,0,0.06172839506172839,24.691358024691358,0)" xlink:href="#aE"/><use transform="matrix(0.06172839506172839,0,0,0.06172839506172839,32.03703703703704,0)" xlink:href="#aC"/><use transform="matrix(0.06172839506172839,0,0,0.06172839506172839,44.382716049382715,0)" xlink:href="#bK"/><use transform="matrix(0.06172839506172839,0,0,0.06172839506172839,62.839506172839506,0)" xlink:href="#bd"/></g><path fill="#333" d="M140-251c81 0 123 46 123 126C263-46 219 4 140 4 59 4 17-45 17-125s42-126 123-126zm0 227c63 0 89-41 89-101s-29-99-89-99c-61 0-89 39-89 99S79-25 140-24" id="bL"/><g id="T"><use transform="matrix(0.08641975308641973,0,0,0.08641975308641973,0,0)" xlink:href="#bL"/><use transform="matrix(0.08641975308641973,0,0,0.08641975308641973,24.197530864197525,0)" xlink:href="#aW"/><use transform="matrix(0.08641975308641973,0,0,0.08641975308641973,41.48148148148147,0)" xlink:href="#ba"/><use transform="matrix(0.08641975308641973,0,0,0.08641975308641973,50.12345679012345,0)" xlink:href="#aD"/><use transform="matrix(0.08641975308641973,0,0,0.08641975308641973,56.95061728395059,0)" xlink:href="#bf"/><use transform="matrix(0.08641975308641973,0,0,0.08641975308641973,74.23456790123454,0)" xlink:href="#bc"/><use transform="matrix(0.08641975308641973,0,0,0.08641975308641973,91.5185185185185,0)" xlink:href="#aC"/><use transform="matrix(0.08641975308641973,0,0,0.08641975308641973,108.80246913580244,0)" xlink:href="#aZ"/></g><g id="U"><use transform="matrix(0.08641975308641973,0,0,0.08641975308641973,0,0)" xlink:href="#br"/><use transform="matrix(0.08641975308641973,0,0,0.08641975308641973,22.38271604938271,0)" xlink:href="#bf"/><use transform="matrix(0.08641975308641973,0,0,0.08641975308641973,39.66666666666666,0)" xlink:href="#bK"/><use transform="matrix(0.08641975308641973,0,0,0.08641975308641973,65.50617283950615,0)" xlink:href="#aW"/><use transform="matrix(0.08641975308641973,0,0,0.08641975308641973,82.7901234567901,0)" xlink:href="#aE"/><use transform="matrix(0.08641975308641973,0,0,0.08641975308641973,93.07407407407405,0)" xlink:href="#az"/><use transform="matrix(0.08641975308641973,0,0,0.08641975308641973,110.358024691358,0)" xlink:href="#bd"/><use transform="matrix(0.08641975308641973,0,0,0.08641975308641973,125.91358024691355,0)" xlink:href="#bd"/><use transform="matrix(0.08641975308641973,0,0,0.08641975308641973,141.4691358024691,0)" xlink:href="#aD"/><use transform="matrix(0.08641975308641973,0,0,0.08641975308641973,148.29629629629628,0)" xlink:href="#bf"/><use transform="matrix(0.08641975308641973,0,0,0.08641975308641973,165.58024691358023,0)" xlink:href="#bc"/></g><g id="V"><use transform="matrix(0.06172839506172839,0,0,0.06172839506172839,0,0)" xlink:href="#aw"/><use transform="matrix(0.06172839506172839,0,0,0.06172839506172839,12.345679012345679,0)" xlink:href="#bf"/><use transform="matrix(0.06172839506172839,0,0,0.06172839506172839,24.691358024691358,0)" xlink:href="#bd"/><use transform="matrix(0.06172839506172839,0,0,0.06172839506172839,35.80246913580247,0)" xlink:href="#bd"/><use transform="matrix(0.06172839506172839,0,0,0.06172839506172839,46.91358024691358,0)" xlink:href="#aZ"/><use transform="matrix(0.06172839506172839,0,0,0.06172839506172839,51.79012345679013,0)" xlink:href="#az"/><use transform="matrix(0.06172839506172839,0,0,0.06172839506172839,64.13580246913581,0)" xlink:href="#bd"/><use transform="matrix(0.06172839506172839,0,0,0.06172839506172839,75.24691358024693,0)" xlink:href="#bd"/></g><g id="W"><use transform="matrix(0.06172839506172839,0,0,0.06172839506172839,0,0)" xlink:href="#bt"/><use transform="matrix(0.06172839506172839,0,0,0.06172839506172839,12.345679012345679,0)" xlink:href="#aA"/><use transform="matrix(0.06172839506172839,0,0,0.06172839506172839,23.45679012345679,0)" xlink:href="#ba"/><use transform="matrix(0.06172839506172839,0,0,0.06172839506172839,29.62962962962963,0)" xlink:href="#az"/><use transform="matrix(0.06172839506172839,0,0,0.06172839506172839,41.97530864197531,0)" xlink:href="#bd"/></g><g id="X"><use transform="matrix(0.06172839506172839,0,0,0.06172839506172839,0,0)" xlink:href="#be"/><use transform="matrix(0.06172839506172839,0,0,0.06172839506172839,11.11111111111111,0)" xlink:href="#bf"/><use transform="matrix(0.06172839506172839,0,0,0.06172839506172839,23.45679012345679,0)" xlink:href="#bK"/><use transform="matrix(0.06172839506172839,0,0,0.06172839506172839,41.91358024691358,0)" xlink:href="#aW"/><use transform="matrix(0.06172839506172839,0,0,0.06172839506172839,54.25925925925926,0)" xlink:href="#aE"/><use transform="matrix(0.06172839506172839,0,0,0.06172839506172839,61.60493827160494,0)" xlink:href="#az"/><use transform="matrix(0.06172839506172839,0,0,0.06172839506172839,73.95061728395062,0)" xlink:href="#bd"/><use transform="matrix(0.06172839506172839,0,0,0.06172839506172839,85.06172839506173,0)" xlink:href="#bd"/><use transform="matrix(0.06172839506172839,0,0,0.06172839506172839,96.17283950617285,0)" xlink:href="#aD"/><use transform="matrix(0.06172839506172839,0,0,0.06172839506172839,101.0493827160494,0)" xlink:href="#bf"/><use transform="matrix(0.06172839506172839,0,0,0.06172839506172839,113.39506172839508,0)" xlink:href="#bc"/></g><g id="Y"><use transform="matrix(0.06172839506172839,0,0,0.06172839506172839,0,0)" xlink:href="#aU"/><use transform="matrix(0.06172839506172839,0,0,0.06172839506172839,15.987654320987653,0)" xlink:href="#az"/><use transform="matrix(0.06172839506172839,0,0,0.06172839506172839,28.333333333333332,0)" xlink:href="#be"/><use transform="matrix(0.06172839506172839,0,0,0.06172839506172839,39.44444444444444,0)" xlink:href="#bf"/><use transform="matrix(0.06172839506172839,0,0,0.06172839506172839,51.79012345679012,0)" xlink:href="#bK"/><use transform="matrix(0.06172839506172839,0,0,0.06172839506172839,70.24691358024691,0)" xlink:href="#aW"/><use transform="matrix(0.06172839506172839,0,0,0.06172839506172839,82.5925925925926,0)" xlink:href="#aE"/><use transform="matrix(0.06172839506172839,0,0,0.06172839506172839,89.93827160493828,0)" xlink:href="#az"/><use transform="matrix(0.06172839506172839,0,0,0.06172839506172839,102.28395061728396,0)" xlink:href="#bd"/><use transform="matrix(0.06172839506172839,0,0,0.06172839506172839,113.39506172839508,0)" xlink:href="#bd"/></g><g id="Z"><use transform="matrix(0.06172839506172839,0,0,0.06172839506172839,0,0)" xlink:href="#aB"/><use transform="matrix(0.06172839506172839,0,0,0.06172839506172839,14.814814814814813,0)" xlink:href="#aC"/><use transform="matrix(0.06172839506172839,0,0,0.06172839506172839,27.160493827160494,0)" xlink:href="#aE"/><use transform="matrix(0.06172839506172839,0,0,0.06172839506172839,34.50617283950617,0)" xlink:href="#aC"/><use transform="matrix(0.06172839506172839,0,0,0.06172839506172839,46.85185185185185,0)" xlink:href="#bK"/><use transform="matrix(0.06172839506172839,0,0,0.06172839506172839,65.30864197530863,0)" xlink:href="#bd"/></g><g id="aa"><use transform="matrix(0.08641975308641973,0,0,0.08641975308641973,0,0)" xlink:href="#aU"/><use transform="matrix(0.08641975308641973,0,0,0.08641975308641973,22.38271604938271,0)" xlink:href="#az"/><use transform="matrix(0.08641975308641973,0,0,0.08641975308641973,39.66666666666666,0)" xlink:href="#be"/><use transform="matrix(0.08641975308641973,0,0,0.08641975308641973,55.22222222222221,0)" xlink:href="#bf"/><use transform="matrix(0.08641975308641973,0,0,0.08641975308641973,72.50617283950615,0)" xlink:href="#bK"/><use transform="matrix(0.08641975308641973,0,0,0.08641975308641973,98.34567901234564,0)" xlink:href="#aW"/><use transform="matrix(0.08641975308641973,0,0,0.08641975308641973,115.62962962962959,0)" xlink:href="#aE"/><use transform="matrix(0.08641975308641973,0,0,0.08641975308641973,125.91358024691354,0)" xlink:href="#az"/><use transform="matrix(0.08641975308641973,0,0,0.08641975308641973,143.1975308641975,0)" xlink:href="#bd"/><use transform="matrix(0.08641975308641973,0,0,0.08641975308641973,158.75308641975303,0)" xlink:href="#bd"/><use transform="matrix(0.08641975308641973,0,0,0.08641975308641973,174.30864197530857,0)" xlink:href="#aD"/><use transform="matrix(0.08641975308641973,0,0,0.08641975308641973,181.1358024691357,0)" xlink:href="#bf"/><use transform="matrix(0.08641975308641973,0,0,0.08641975308641973,198.41975308641966,0)" xlink:href="#bc"/></g><g id="ab"><use transform="matrix(0.06172839506172839,0,0,0.06172839506172839,0,0)" xlink:href="#av"/><use transform="matrix(0.06172839506172839,0,0,0.06172839506172839,14.814814814814813,0)" xlink:href="#aA"/><use transform="matrix(0.06172839506172839,0,0,0.06172839506172839,25.925925925925924,0)" xlink:href="#ba"/><use transform="matrix(0.06172839506172839,0,0,0.06172839506172839,32.098765432098766,0)" xlink:href="#az"/><use transform="matrix(0.06172839506172839,0,0,0.06172839506172839,44.44444444444444,0)" xlink:href="#bd"/></g><g id="ac"><use transform="matrix(0.06172839506172839,0,0,0.06172839506172839,0,0)" xlink:href="#bh"/><use transform="matrix(0.06172839506172839,0,0,0.06172839506172839,12.345679012345679,0)" xlink:href="#az"/><use transform="matrix(0.06172839506172839,0,0,0.06172839506172839,24.691358024691358,0)" xlink:href="#be"/><use transform="matrix(0.06172839506172839,0,0,0.06172839506172839,35.80246913580247,0)" xlink:href="#bf"/><use transform="matrix(0.06172839506172839,0,0,0.06172839506172839,48.148148148148145,0)" xlink:href="#bK"/><use transform="matrix(0.06172839506172839,0,0,0.06172839506172839,66.60493827160494,0)" xlink:href="#aW"/><use transform="matrix(0.06172839506172839,0,0,0.06172839506172839,78.95061728395062,0)" xlink:href="#aE"/><use transform="matrix(0.06172839506172839,0,0,0.06172839506172839,86.2962962962963,0)" xlink:href="#az"/><use transform="matrix(0.06172839506172839,0,0,0.06172839506172839,98.64197530864199,0)" xlink:href="#bd"/><use transform="matrix(0.06172839506172839,0,0,0.06172839506172839,109.7530864197531,0)" xlink:href="#bd"/><use transform="matrix(0.06172839506172839,0,0,0.06172839506172839,120.86419753086422,0)" xlink:href="#aD"/><use transform="matrix(0.06172839506172839,0,0,0.06172839506172839,125.74074074074076,0)" xlink:href="#bf"/><use transform="matrix(0.06172839506172839,0,0,0.06172839506172839,138.08641975308643,0)" xlink:href="#bc"/></g><g id="ad"><use transform="matrix(0.06172839506172839,0,0,0.06172839506172839,0,0)" xlink:href="#aB"/><use transform="matrix(0.06172839506172839,0,0,0.06172839506172839,14.814814814814813,0)" xlink:href="#aC"/><use transform="matrix(0.06172839506172839,0,0,0.06172839506172839,27.160493827160494,0)" xlink:href="#aE"/><use transform="matrix(0.06172839506172839,0,0,0.06172839506172839,34.50617283950617,0)" xlink:href="#aC"/><use transform="matrix(0.06172839506172839,0,0,0.06172839506172839,46.85185185185185,0)" xlink:href="#bK"/></g><g id="ae"><use transform="matrix(0.06172839506172839,0,0,0.06172839506172839,0,0)" xlink:href="#az"/><use transform="matrix(0.06172839506172839,0,0,0.06172839506172839,12.345679012345679,0)" xlink:href="#bg"/><use transform="matrix(0.06172839506172839,0,0,0.06172839506172839,23.45679012345679,0)" xlink:href="#aW"/><use transform="matrix(0.06172839506172839,0,0,0.06172839506172839,35.80246913580247,0)" xlink:href="#aC"/><use transform="matrix(0.06172839506172839,0,0,0.06172839506172839,48.148148148148145,0)" xlink:href="#bc"/><use transform="matrix(0.06172839506172839,0,0,0.06172839506172839,60.49382716049382,0)" xlink:href="#bd"/><use transform="matrix(0.06172839506172839,0,0,0.06172839506172839,71.60493827160494,0)" xlink:href="#aD"/><use transform="matrix(0.06172839506172839,0,0,0.06172839506172839,76.48148148148148,0)" xlink:href="#bf"/><use transform="matrix(0.06172839506172839,0,0,0.06172839506172839,88.82716049382717,0)" xlink:href="#bc"/></g><path fill="#333" d="M147 0H94L2-248h55l64 206c17-72 42-137 63-206h54" id="bM"/><path fill="#333" d="M121-226c-27-7-43 5-38 36h38v33H83V0H34v-157H6v-33h28c-9-59 32-81 87-68v32" id="bN"/><path fill="#333" d="M123 10C108 53 80 86 19 72V37c35 8 53-11 59-39L3-190h52l48 148c12-52 28-100 44-148h51" id="bO"/><g id="af"><use transform="matrix(0.06172839506172839,0,0,0.06172839506172839,0,0)" xlink:href="#bM"/><use transform="matrix(0.06172839506172839,0,0,0.06172839506172839,13.580246913580245,0)" xlink:href="#bA"/><use transform="matrix(0.06172839506172839,0,0,0.06172839506172839,25.925925925925924,0)" xlink:href="#bz"/><use transform="matrix(0.06172839506172839,0,0,0.06172839506172839,34.5679012345679,0)" xlink:href="#as"/><use transform="matrix(0.06172839506172839,0,0,0.06172839506172839,40.74074074074074,0)" xlink:href="#bN"/><use transform="matrix(0.06172839506172839,0,0,0.06172839506172839,48.08641975308642,0)" xlink:href="#bO"/></g><path fill="#333" d="M88-194c31-1 46 15 58 34l-1-101h50l1 261h-48c-2-10 0-23-3-31C134-8 116 4 84 4 32 4 16-41 15-95c0-56 19-97 73-99zm17 164c33 0 40-30 41-66 1-37-9-64-41-64s-38 30-39 65c0 43 13 65 39 65" id="bP"/><path fill="#333" d="M4 7l51-268h42L46 7H4" id="bQ"/><path fill="#333" d="M67-93c0 74 22 123 53 168H70C40 30 18-18 18-93s22-123 52-168h50c-32 44-53 94-53 168" id="bR"/><path fill="#333" d="M102-93c0 74-22 123-52 168H0C30 29 54-18 53-93c0-74-22-123-53-168h50c30 45 52 94 52 168" id="bS"/><g id="ag"><use transform="matrix(0.06172839506172839,0,0,0.06172839506172839,0,0)" xlink:href="#bP"/><use transform="matrix(0.06172839506172839,0,0,0.06172839506172839,13.518518518518517,0)" xlink:href="#bB"/><use transform="matrix(0.06172839506172839,0,0,0.06172839506172839,25.864197530864196,0)" xlink:href="#bC"/><use transform="matrix(0.06172839506172839,0,0,0.06172839506172839,33.20987654320987,0)" xlink:href="#bB"/><use transform="matrix(0.06172839506172839,0,0,0.06172839506172839,45.55555555555555,0)" xlink:href="#bQ"/><use transform="matrix(0.06172839506172839,0,0,0.06172839506172839,51.72839506172839,0)" xlink:href="#bE"/><use transform="matrix(0.06172839506172839,0,0,0.06172839506172839,64.07407407407408,0)" xlink:href="#as"/><use transform="matrix(0.06172839506172839,0,0,0.06172839506172839,70.24691358024691,0)" xlink:href="#at"/><use transform="matrix(0.06172839506172839,0,0,0.06172839506172839,83.76543209876543,0)" xlink:href="#bR"/><use transform="matrix(0.06172839506172839,0,0,0.06172839506172839,91.11111111111111,0)" xlink:href="#bE"/><use transform="matrix(0.06172839506172839,0,0,0.06172839506172839,103.4567901234568,0)" xlink:href="#bS"/></g><g id="ah"><use transform="matrix(0.08641975308641973,0,0,0.08641975308641973,0,0)" xlink:href="#aV"/><use transform="matrix(0.08641975308641973,0,0,0.08641975308641973,20.740740740740737,0)" xlink:href="#be"/><use transform="matrix(0.08641975308641973,0,0,0.08641975308641973,36.29629629629629,0)" xlink:href="#ba"/><use transform="matrix(0.08641975308641973,0,0,0.08641975308641973,44.938271604938265,0)" xlink:href="#aD"/><use transform="matrix(0.08641975308641973,0,0,0.08641975308641973,51.76543209876542,0)" xlink:href="#bf"/><use transform="matrix(0.08641975308641973,0,0,0.08641975308641973,69.04938271604937,0)" xlink:href="#bc"/></g><g id="ai"><use transform="matrix(0.06172839506172839,0,0,0.06172839506172839,0,0)" xlink:href="#br"/><use transform="matrix(0.06172839506172839,0,0,0.06172839506172839,15.987654320987653,0)" xlink:href="#bf"/><use transform="matrix(0.06172839506172839,0,0,0.06172839506172839,28.333333333333332,0)" xlink:href="#bc"/><use transform="matrix(0.06172839506172839,0,0,0.06172839506172839,40.67901234567901,0)" xlink:href="#ba"/><use transform="matrix(0.06172839506172839,0,0,0.06172839506172839,46.851851851851855,0)" xlink:href="#aE"/><use transform="matrix(0.06172839506172839,0,0,0.06172839506172839,54.19753086419753,0)" xlink:href="#aC"/><use transform="matrix(0.06172839506172839,0,0,0.06172839506172839,66.54320987654322,0)" xlink:href="#be"/><use transform="matrix(0.06172839506172839,0,0,0.06172839506172839,77.65432098765433,0)" xlink:href="#ba"/></g><g id="aj"><use transform="matrix(0.06172839506172839,0,0,0.06172839506172839,0,0)" xlink:href="#aY"/><use transform="matrix(0.06172839506172839,0,0,0.06172839506172839,20.123456790123456,0)" xlink:href="#aC"/><use transform="matrix(0.06172839506172839,0,0,0.06172839506172839,32.46913580246913,0)" xlink:href="#aZ"/><use transform="matrix(0.06172839506172839,0,0,0.06172839506172839,37.34567901234568,0)" xlink:href="#aZ"/><use transform="matrix(0.06172839506172839,0,0,0.06172839506172839,42.22222222222222,0)" xlink:href="#az"/><use transform="matrix(0.06172839506172839,0,0,0.06172839506172839,54.5679012345679,0)" xlink:href="#ba"/></g><g id="ak"><use transform="matrix(0.06172839506172839,0,0,0.06172839506172839,0,0)" xlink:href="#be"/><use transform="matrix(0.06172839506172839,0,0,0.06172839506172839,11.11111111111111,0)" xlink:href="#aC"/><use transform="matrix(0.06172839506172839,0,0,0.06172839506172839,23.45679012345679,0)" xlink:href="#aZ"/><use transform="matrix(0.06172839506172839,0,0,0.06172839506172839,28.333333333333336,0)" xlink:href="#aZ"/></g><g id="al"><use transform="matrix(0.12345679012345678,0,0,0.12345679012345678,0,0)" xlink:href="#ax"/><use transform="matrix(0.12345679012345678,0,0,0.12345679012345678,29.629629629629626,0)" xlink:href="#bK"/><use transform="matrix(0.12345679012345678,0,0,0.12345679012345678,66.5432098765432,0)" xlink:href="#aC"/><use transform="matrix(0.12345679012345678,0,0,0.12345679012345678,91.23456790123456,0)" xlink:href="#aE"/><use transform="matrix(0.12345679012345678,0,0,0.12345679012345678,105.92592592592591,0)" xlink:href="#ba"/></g><g id="am"><use transform="matrix(0.12345679012345678,0,0,0.12345679012345678,0,0)" xlink:href="#br"/><use transform="matrix(0.12345679012345678,0,0,0.12345679012345678,31.975308641975307,0)" xlink:href="#bf"/><use transform="matrix(0.12345679012345678,0,0,0.12345679012345678,56.666666666666664,0)" xlink:href="#bc"/><use transform="matrix(0.12345679012345678,0,0,0.12345679012345678,81.35802469135803,0)" xlink:href="#ba"/><use transform="matrix(0.12345679012345678,0,0,0.12345679012345678,93.70370370370371,0)" xlink:href="#aE"/><use transform="matrix(0.12345679012345678,0,0,0.12345679012345678,108.39506172839506,0)" xlink:href="#aC"/><use transform="matrix(0.12345679012345678,0,0,0.12345679012345678,133.08641975308643,0)" xlink:href="#be"/><use transform="matrix(0.12345679012345678,0,0,0.12345679012345678,155.30864197530866,0)" xlink:href="#ba"/><use transform="matrix(0.12345679012345678,0,0,0.12345679012345678,167.65432098765433,0)" xlink:href="#bd"/></g><path fill="#333" d="M206 0h-36l-40-164L89 0H53L-1-190h32L70-26l43-164h34l41 164 42-164h31" id="bT"/><g id="an"><use transform="matrix(0.12345679012345678,0,0,0.12345679012345678,0,0)" xlink:href="#bs"/><use transform="matrix(0.12345679012345678,0,0,0.12345679012345678,14.691358024691358,0)" xlink:href="#bt"/><use transform="matrix(0.12345679012345678,0,0,0.12345679012345678,39.382716049382715,0)" xlink:href="#aZ"/><use transform="matrix(0.12345679012345678,0,0,0.12345679012345678,49.1358024691358,0)" xlink:href="#bd"/><use transform="matrix(0.12345679012345678,0,0,0.12345679012345678,71.35802469135803,0)" xlink:href="#bu"/><use transform="matrix(0.12345679012345678,0,0,0.12345679012345678,86.04938271604938,0)" xlink:href="#bT"/><use transform="matrix(0.12345679012345678,0,0,0.12345679012345678,118.02469135802468,0)" xlink:href="#aC"/><use transform="matrix(0.12345679012345678,0,0,0.12345679012345678,142.71604938271605,0)" xlink:href="#aZ"/><use transform="matrix(0.12345679012345678,0,0,0.12345679012345678,152.46913580246914,0)" xlink:href="#aZ"/><use transform="matrix(0.12345679012345678,0,0,0.12345679012345678,162.22222222222223,0)" xlink:href="#az"/><use transform="matrix(0.12345679012345678,0,0,0.12345679012345678,186.9135802469136,0)" xlink:href="#ba"/><use transform="matrix(0.12345679012345678,0,0,0.12345679012345678,199.25925925925927,0)" xlink:href="#bv"/></g><g id="ao"><use transform="matrix(0.06172839506172839,0,0,0.06172839506172839,0,0)" xlink:href="#bh"/><use transform="matrix(0.06172839506172839,0,0,0.06172839506172839,12.345679012345679,0)" xlink:href="#aC"/><use transform="matrix(0.06172839506172839,0,0,0.06172839506172839,24.691358024691358,0)" xlink:href="#ba"/><use transform="matrix(0.06172839506172839,0,0,0.06172839506172839,30.864197530864196,0)" xlink:href="#aC"/></g></defs></g></svg>