<svg xmlns="http://www.w3.org/2000/svg" xmlns:xlink="http://www.w3.org/1999/xlink" xmlns:lucid="lucid" width="1756" height="1333.09"><g transform="translate(0 20)" lucid:page-tab-id="0_0"><path d="M0 0h1870.87v1322.83H0z" fill="#fff"/><path d="M600 147.5c0-3.3 2.7-6 6-6h148c3.3 0 6 2.7 6 6v68c0 3.3-2.7 6-6 6H606c-3.3 0-6-2.7-6-6z" stroke="#7ab648" stroke-width="3" fill="#d1bcd2"/><path d="M616 141.5v80m128-80v80" stroke="#7ab648" stroke-width="3" fill="none"/><use xlink:href="#a" transform="matrix(1,0,0,1,625,146.5) translate(8.827160493827165 39.44444444444444)"/><path d="M1140 147.5c0-3.3 2.7-6 6-6h148c3.3 0 6 2.7 6 6v68c0 3.3-2.7 6-6 6h-148c-3.3 0-6-2.7-6-6z" stroke="#0c7cba" stroke-width="3" fill="#d1bcd2"/><path d="M1156 141.5v80m128-80v80" stroke="#0c7cba" stroke-width="3" fill="none"/><use xlink:href="#b" transform="matrix(1,0,0,1,1165,146.5) translate(0.21604938271604368 26.111111111111114)"/><use xlink:href="#c" transform="matrix(1,0,0,1,1165,146.5) translate(-2.2839506172839563 52.77777777777778)"/><path d="M1540 147.5c0-3.3 2.7-6 6-6h148c3.3 0 6 2.7 6 6v68c0 3.3-2.7 6-6 6h-148c-3.3 0-6-2.7-6-6z" stroke="#c92d39" stroke-width="3" fill="#d1bcd2"/><path d="M1556 141.5v80m128-80v80" stroke="#c92d39" stroke-width="3" fill="none"/><use xlink:href="#d" transform="matrix(1,0,0,1,1565,146.5) translate(24.783950617283953 26.111111111111114)"/><use xlink:href="#e" transform="matrix(1,0,0,1,1565,146.5) translate(-0.40123456790124123 52.77777777777778)"/><path d="M627.97 565.95c2.23-2.46 6.72-4.45 10.03-4.45h84c3.3 0 7.8 2 10.03 4.45l23.94 26.4c2.23 2.45 2.23 6.43 0 8.9l-23.94 26.4c-2.23 2.45-6.72 4.44-10.03 4.44h-84c-3.3 0-7.8-2-10.03-4.46l-23.94-26.4c-2.23-2.46-2.23-6.44 0-8.9z" stroke="#ef8d22" stroke-width="3" fill="#ffdba9"/><use xlink:href="#f" transform="matrix(1,0,0,1,605,566.4999999999998) translate(22.62845679012345 36.84027777777778)"/><use xlink:href="#g" transform="matrix(1,0,0,1,605,566.4999999999998) translate(46.08524691358024 36.84027777777778)"/><path d="M420 6c0-3.3 2.7-6 6-6h248c3.3 0 6 2.7 6 6v62c0 3.3-2.7 6-6 6H426c-3.3 0-6-2.7-6-6z" stroke="#000" stroke-opacity="0" stroke-width="3" fill="#fff" fill-opacity="0"/><use xlink:href="#h" transform="matrix(1,0,0,1,425,5) translate(57.07407407407406 46.66666666666667)"/><path d="M1460 6c0-3.3 2.7-6 6-6h248c3.3 0 6 2.7 6 6v62c0 3.3-2.7 6-6 6h-248c-3.3 0-6-2.7-6-6z" stroke="#000" stroke-opacity="0" stroke-width="3" fill="#fff" fill-opacity="0"/><use xlink:href="#i" transform="matrix(1,0,0,1,1465,5) translate(55.96296296296296 46.66666666666667)"/><path d="M1540 227.5c0-3.3 2.7-6 6-6h148c3.3 0 6 2.7 6 6v66.47c0 3.32-2.7 6-6 6h-148c-3.3 0-6-2.68-6-6z" stroke="#7ab648" stroke-width="3" fill="#c7e8ac"/><path d="M1556 221.5v78.47m128-78.47v78.47" stroke="#7ab648" stroke-width="3" fill="none"/><use xlink:href="#j" transform="matrix(1,0,0,1,1565,226.5) translate(13.086419753086417 25.611111111111114)"/><use xlink:href="#k" transform="matrix(1,0,0,1,1565,226.5) translate(4.938271604938265 52.27777777777778)"/><use xlink:href="#l" transform="matrix(1,0,0,1,1565,226.5) translate(71.85185185185185 52.27777777777778)"/><path d="M1000 6c0-3.3 2.7-6 6-6h248c3.3 0 6 2.7 6 6v62c0 3.3-2.7 6-6 6h-248c-3.3 0-6-2.7-6-6z" stroke="#000" stroke-opacity="0" stroke-width="3" fill="#fff" fill-opacity="0"/><use xlink:href="#m" transform="matrix(1,0,0,1,1005,5) translate(55.96296296296296 46.66666666666667)"/><path d="M380 147.5c0-3.3 2.7-6 6-6h188c3.3 0 6 2.7 6 6v48c0 3.3-2.7 6-6 6H386c-3.3 0-6-2.7-6-6z" stroke="#000" stroke-opacity="0" stroke-width="3" fill="#fff" fill-opacity="0"/><use xlink:href="#n" transform="matrix(1,0,0,1,385,146.5) translate(70.84567901234567 31.138888888888893)"/><path d="M900 155c0-3.3 2.7-6 6-6h188c3.3 0 6 2.7 6 6v60.5c0 3.3-2.7 6-6 6H906c-3.3 0-6-2.7-6-6z" stroke="#000" stroke-opacity="0" stroke-width="3" fill="#fff" fill-opacity="0"/><use xlink:href="#o" transform="matrix(1,0,0,1,905,153.99999999999997) translate(45.78395061728395 24.888888888888893)"/><use xlink:href="#p" transform="matrix(1,0,0,1,905,153.99999999999997) translate(45.82716049382716 62.222222222222236)"/><path d="M600 407.5c0-3.3 2.7-6 6-6h148c3.3 0 6 2.7 6 6v68c0 3.3-2.7 6-6 6H606c-3.3 0-6-2.7-6-6z" stroke="#7ab648" stroke-width="3" fill="#d1bcd2"/><path d="M616 401.5v80m128-80v80" stroke="#7ab648" stroke-width="3" fill="none"/><use xlink:href="#a" transform="matrix(1,0,0,1,625,406.5) translate(8.827160493827165 39.44444444444444)"/><path d="M340 451.17c0-3.32 2.7-6 6-6h228c3.3 0 6 2.68 6 6v110c0 3.3-2.7 6-6 6H346c-3.3 0-6-2.7-6-6z" stroke="#000" stroke-opacity="0" stroke-width="3" fill="#fff" fill-opacity="0"/><use xlink:href="#q" transform="matrix(1,0,0,1,345,450.1666666666665) translate(58.09259259259259 24.888888888888893)"/><use xlink:href="#r" transform="matrix(1,0,0,1,345,450.1666666666665) translate(44.17901234567901 62.222222222222236)"/><use xlink:href="#s" transform="matrix(1,0,0,1,345,450.1666666666665) translate(42.234567901234556 99.55555555555557)"/><use xlink:href="#t" transform="matrix(1,0,0,1,345,450.1666666666665) translate(135.91358024691357 99.55555555555557)"/><path d="M600 487.5c0-3.3 2.7-6 6-6h148c3.3 0 6 2.7 6 6v68c0 3.3-2.7 6-6 6H606c-3.3 0-6-2.7-6-6z" stroke="#0c7cba" stroke-width="3" fill="#d1bcd2"/><path d="M616 481.5v80m128-80v80" stroke="#0c7cba" stroke-width="3" fill="none"/><use xlink:href="#b" transform="matrix(1,0,0,1,625,486.5) translate(0.21604938271604368 26.111111111111114)"/><use xlink:href="#c" transform="matrix(1,0,0,1,625,486.5) translate(-2.2839506172839563 52.77777777777778)"/><path d="M1140 407.5c0-3.3 2.7-6 6-6h148c3.3 0 6 2.7 6 6v68c0 3.3-2.7 6-6 6h-148c-3.3 0-6-2.7-6-6z" stroke="#0c7cba" stroke-width="3" fill="#d1bcd2"/><path d="M1156 401.5v80m128-80v80" stroke="#0c7cba" stroke-width="3" fill="none"/><use xlink:href="#b" transform="matrix(1,0,0,1,1165,406.5) translate(0.21604938271604368 26.111111111111114)"/><use xlink:href="#c" transform="matrix(1,0,0,1,1165,406.5) translate(-2.2839506172839563 52.77777777777778)"/><path d="M880 442.83c0-3.3 2.7-6 6-6h228c3.3 0 6 2.7 6 6v72.67c0 3.3-2.7 6-6 6H886c-3.3 0-6-2.7-6-6z" stroke="#000" stroke-opacity="0" stroke-width="3" fill="#fff" fill-opacity="0"/><use xlink:href="#u" transform="matrix(1,0,0,1,885,441.83333333333314) translate(32.987654320987644 24.888888888888893)"/><use xlink:href="#v" transform="matrix(1,0,0,1,885,441.83333333333314) translate(58.09259259259259 62.222222222222236)"/><path d="M1140 768c0-3.3 2.7-6 6-6h148c3.3 0 6 2.7 6 6v68c0 3.3-2.7 6-6 6h-148c-3.3 0-6-2.7-6-6z" stroke="#0c7cba" stroke-width="3" fill="#d1bcd2"/><path d="M1156 762v80m128-80v80" stroke="#0c7cba" stroke-width="3" fill="none"/><use xlink:href="#b" transform="matrix(1,0,0,1,1165,767.0000000000002) translate(0.21604938271604368 26.111111111111114)"/><use xlink:href="#c" transform="matrix(1,0,0,1,1165,767.0000000000002) translate(-2.2839506172839563 52.77777777777778)"/><path d="M880 802c0-3.3 2.7-6 6-6h228c3.3 0 6 2.7 6 6v72.67c0 3.3-2.7 6-6 6H886c-3.3 0-6-2.7-6-6z" stroke="#000" stroke-opacity="0" stroke-width="3" fill="#fff" fill-opacity="0"/><use xlink:href="#w" transform="matrix(1,0,0,1,885,801.0000000000001) translate(26.98148148148148 43.63888888888889)"/><path d="M1167.97 846.45c2.23-2.46 6.72-4.45 10.03-4.45h84c3.3 0 7.8 2 10.03 4.45l23.94 26.4c2.23 2.45 2.23 6.43 0 8.9l-23.94 26.4c-2.23 2.45-6.72 4.44-10.03 4.44h-84c-3.3 0-7.8-2-10.03-4.46l-23.94-26.4c-2.23-2.46-2.23-6.44 0-8.9z" stroke="#ef8d22" stroke-width="3" fill="#ffdba9"/><use xlink:href="#f" transform="matrix(1,0,0,1,1145,847) translate(22.62845679012345 36.84027777777778)"/><use xlink:href="#g" transform="matrix(1,0,0,1,1145,847) translate(46.08524691358024 36.84027777777778)"/><path d="M762.5 441.5h33c3.3 0 6-2.7 6-6V366c0-3.3 2.7-6 6-6H1214c3.3 0 6 2.7 6 6v15.5" stroke="#5e5e5e" stroke-width="2" fill="none"/><path d="M762.53 442.5h-1.03v-2h1.03z" fill="#5e5e5e"/><path d="M1220 396.76l-4.64-14.26h9.28z" stroke="#5e5e5e" stroke-width="2" fill="#5e5e5e"/><use xlink:href="#x" transform="matrix(1,0,0,1,817.642487844484,364) translate(0 14.222222222222223)"/><use xlink:href="#y" transform="matrix(1,0,0,1,817.642487844484,364) translate(20.69135802469136 14.222222222222223)"/><use xlink:href="#z" transform="matrix(1,0,0,1,817.642487844484,364) translate(62.07407407407408 14.222222222222223)"/><use xlink:href="#A" transform="matrix(1,0,0,1,817.642487844484,364) translate(0 35.55555555555556)"/><use xlink:href="#B" transform="matrix(1,0,0,1,817.642487844484,364) translate(30.567901234567906 35.55555555555556)"/><path d="M1302.5 181.5h33c3.3 0 6-2.7 6-6V106c0-3.3 2.7-6 6-6H1614c3.3 0 6 2.7 6 6v15.5" stroke="#5e5e5e" stroke-width="2" fill="none"/><path d="M1302.53 182.5h-1.03v-2h1.03z" fill="#5e5e5e"/><path d="M1620 136.76l-4.64-14.26h9.28z" stroke="#5e5e5e" stroke-width="2" fill="#5e5e5e"/><path d="M1540 406c0-3.3 2.7-6 6-6h148c3.3 0 6 2.7 6 6v68c0 3.3-2.7 6-6 6h-148c-3.3 0-6-2.7-6-6z" stroke="#c92d39" stroke-width="3" fill="#d1bcd2"/><path d="M1556 400v80m128-80v80" stroke="#c92d39" stroke-width="3" fill="none"/><use xlink:href="#d" transform="matrix(1,0,0,1,1565,405) translate(24.783950617283953 26.111111111111114)"/><use xlink:href="#e" transform="matrix(1,0,0,1,1565,405) translate(-0.40123456790124123 52.77777777777778)"/><path d="M1540 486c0-3.3 2.7-6 6-6h148c3.3 0 6 2.7 6 6v66.47c0 3.32-2.7 6-6 6h-148c-3.3 0-6-2.68-6-6z" stroke="#7ab648" stroke-width="3" fill="#c7e8ac"/><path d="M1556 480v78.47M1684 480v78.47" stroke="#7ab648" stroke-width="3" fill="none"/><use xlink:href="#j" transform="matrix(1,0,0,1,1565,485.0000000000001) translate(13.086419753086417 25.611111111111114)"/><use xlink:href="#k" transform="matrix(1,0,0,1,1565,485.0000000000001) translate(4.938271604938265 52.27777777777778)"/><use xlink:href="#l" transform="matrix(1,0,0,1,1565,485.0000000000001) translate(71.85185185185185 52.27777777777778)"/><path d="M1540 765.1c0-3.32 2.7-6 6-6h148c3.3 0 6 2.68 6 6v68c0 3.3-2.7 6-6 6h-148c-3.3 0-6-2.7-6-6z" stroke="#c92d39" stroke-width="3" fill="#d1bcd2"/><path d="M1556 759.1v80m128-80v80" stroke="#c92d39" stroke-width="3" fill="none"/><use xlink:href="#d" transform="matrix(1,0,0,1,1565,764.0965532936382) translate(24.783950617283953 26.111111111111114)"/><use xlink:href="#e" transform="matrix(1,0,0,1,1565,764.0965532936382) translate(-0.40123456790124123 52.77777777777778)"/><path d="M1540 845.1c0-3.32 2.7-6 6-6h148c3.3 0 6 2.68 6 6v66.47c0 3.3-2.7 6-6 6h-148c-3.3 0-6-2.7-6-6z" stroke="#7ab648" stroke-width="3" fill="#c7e8ac"/><path d="M1556 839.1v78.47m128-78.47v78.47" stroke="#7ab648" stroke-width="3" fill="none"/><use xlink:href="#j" transform="matrix(1,0,0,1,1565,844.0965532936381) translate(13.086419753086417 25.611111111111114)"/><use xlink:href="#k" transform="matrix(1,0,0,1,1565,844.0965532936381) translate(4.938271604938265 52.27777777777778)"/><use xlink:href="#l" transform="matrix(1,0,0,1,1565,844.0965532936381) translate(71.85185185185185 52.27777777777778)"/><path d="M826.88 597.8h-66.8v-2h66.8zm790.67-239.38l2.53 2.53.92 3.42V380h-2v-15.37l-.7-2.64-1.8-1.8-2.63-.7h-177.74l-2.64.7-1.8 1.8-.7 2.63v226.3l-.92 3.4-2.53 2.54-3.42.92H925.4v-2h498.47l2.64-.72 1.8-1.78.7-2.64v-226.3l.92-3.4 2.53-2.54 3.42-.92h178.26z" fill="#5e5e5e"/><path d="M760.1 597.8H759l.14-1.6-.1-.4h1.07zM1620 395.26l-4.64-14.26h9.28z" fill="#5e5e5e"/><path d="M1620 398.5l-6-18.5h12zm-3.26-16.5l3.26 10.03 3.26-10.03z" fill="#5e5e5e"/><use xlink:href="#x" transform="matrix(1,0,0,1,826.881184002878,575.4607842417006) translate(0 14.222222222222223)"/><use xlink:href="#C" transform="matrix(1,0,0,1,826.881184002878,575.4607842417006) translate(20.69135802469136 14.222222222222223)"/><use xlink:href="#D" transform="matrix(1,0,0,1,826.881184002878,575.4607842417006) translate(0 35.55555555555556)"/><use xlink:href="#E" transform="matrix(1,0,0,1,826.881184002878,575.4607842417006) translate(41.382716049382715 35.55555555555556)"/><use xlink:href="#F" transform="matrix(1,0,0,1,826.881184002878,575.4607842417006) translate(67.01234567901236 35.55555555555556)"/><path d="M1300.1 516.8h33c3.3 0 6-2.7 6-6V364.5c0-3.3 2.67-6 6-6H1614c3.3 0 6 2.7 6 6V380" stroke="#5e5e5e" stroke-width="2" fill="none"/><path d="M1300.1 517.8h-1.1l.14-1.6-.1-.4h1.07z" fill="#5e5e5e"/><path d="M1620 395.26l-4.64-14.26h9.28z" stroke="#5e5e5e" stroke-width="2" fill="#5e5e5e"/><path d="M20 153.5c0-3.3 2.7-6 6-6h248c3.3 0 6 2.7 6 6v62c0 3.3-2.7 6-6 6H26c-3.3 0-6-2.7-6-6z" stroke="#000" stroke-opacity="0" stroke-width="3" fill="#fff" fill-opacity="0"/><use xlink:href="#G" transform="matrix(1,0,0,1,25,152.5) translate(67.29629629629629 46.66666666666667)"/><path d="M20 427.5c0-3.3 2.7-6 6-6h248c3.3 0 6 2.7 6 6v148c0 3.3-2.7 6-6 6H26c-3.3 0-6-2.7-6-6z" stroke="#000" stroke-opacity="0" stroke-width="3" fill="#fff" fill-opacity="0"/><use xlink:href="#H" transform="matrix(1,0,0,1,25,426.5) translate(55.96296296296296 52.04166666666667)"/><use xlink:href="#I" transform="matrix(1,0,0,1,25,426.5) translate(55.518518518518505 116.04166666666667)"/><path d="M20 714.67c0-3.32 2.7-6 6-6h268c3.3 0 6 2.68 6 6v190c0 3.3-2.7 6-6 6H26c-3.3 0-6-2.7-6-6z" stroke="#000" stroke-opacity="0" stroke-width="3" fill="#fff" fill-opacity="0"/><use xlink:href="#J" transform="matrix(1,0,0,1,25,713.666666666667) translate(0.48148148148149517 42.66666666666667)"/><use xlink:href="#K" transform="matrix(1,0,0,1,25,713.666666666667) translate(6.259259259259267 106.66666666666667)"/><use xlink:href="#L" transform="matrix(1,0,0,1,25,713.666666666667) translate(35.8888888888889 106.66666666666667)"/><use xlink:href="#M" transform="matrix(1,0,0,1,25,713.666666666667) translate(63.96296296296296 170.66666666666669)"/><path d="M600 738.33c0-3.3 2.7-6 6-6h148c3.3 0 6 2.7 6 6v68c0 3.32-2.7 6-6 6H606c-3.3 0-6-2.68-6-6z" stroke="#7ab648" stroke-width="3" fill="#d1bcd2"/><path d="M616 732.33v80m128-80v80" stroke="#7ab648" stroke-width="3" fill="none"/><use xlink:href="#a" transform="matrix(1,0,0,1,625,737.3333333333333) translate(8.827160493827165 39.44444444444444)"/><path d="M380 726c0-3.3 2.7-6 6-6h188c3.3 0 6 2.7 6 6v110c0 3.3-2.7 6-6 6H386c-3.3 0-6-2.7-6-6z" stroke="#000" stroke-opacity="0" stroke-width="3" fill="#fff" fill-opacity="0"/><use xlink:href="#N" transform="matrix(1,0,0,1,385,725.0000000000001) translate(32.864197530864196 42.54513888888889)"/><use xlink:href="#O" transform="matrix(1,0,0,1,385,725.0000000000001) translate(41.50617283950617 79.87847222222223)"/><path d="M762.5 181.5h33c3.3 0 6-2.7 6-6V106c0-3.3 2.7-6 6-6H1214c3.3 0 6 2.7 6 6v15.5" stroke="#5e5e5e" stroke-width="2" fill="none"/><path d="M762.53 182.5h-1.03v-2h1.03z" fill="#5e5e5e"/><path d="M1220 136.76l-4.64-14.26h9.28z" stroke="#5e5e5e" stroke-width="2" fill="#5e5e5e"/><use xlink:href="#x" transform="matrix(1,0,0,1,811.0880178854322,104) translate(0 14.222222222222223)"/><use xlink:href="#P" transform="matrix(1,0,0,1,811.0880178854322,104) translate(20.69135802469136 14.222222222222223)"/><path d="M762.5 772.33h33c3.3 0 6-2.68 6-6V726.5c0-3.3 2.7-6 6-6H1214c3.3 0 6 2.7 6 6V742" stroke="#5e5e5e" stroke-width="2" fill="none"/><path d="M762.53 773.33h-1.03v-2h1.03z" fill="#5e5e5e"/><path d="M1220 757.26l-4.64-14.26h9.28z" stroke="#5e5e5e" stroke-width="2" fill="#5e5e5e"/><use xlink:href="#Q" transform="matrix(1,0,0,1,809.5,728.1840975783156) translate(0.0049999999999954525 14.222222222222223)"/><use xlink:href="#R" transform="matrix(1,0,0,1,809.5,728.1840975783156) translate(43.41240740740741 14.222222222222223)"/><use xlink:href="#S" transform="matrix(1,0,0,1,809.5,728.1840975783156) translate(114.37537037037038 14.222222222222223)"/><use xlink:href="#T" transform="matrix(1,0,0,1,809.5,728.1840975783156) translate(24.177839506172838 35.55555555555556)"/><use xlink:href="#U" transform="matrix(1,0,0,1,809.5,728.1840975783156) translate(60.62228395061729 35.55555555555556)"/><use xlink:href="#V" transform="matrix(1,0,0,1,809.5,728.1840975783156) translate(101.01734567901235 35.55555555555556)"/><path d="M1167.97 485.95c2.23-2.46 6.72-4.45 10.03-4.45h84c3.3 0 7.8 2 10.03 4.45l23.94 26.4c2.23 2.45 2.23 6.43 0 8.9l-23.94 26.4c-2.23 2.45-6.72 4.44-10.03 4.44h-84c-3.3 0-7.8-2-10.03-4.46l-23.94-26.4c-2.23-2.46-2.23-6.44 0-8.9z" stroke="#ef8d22" stroke-width="3" fill="#ffdba9"/><use xlink:href="#f" transform="matrix(1,0,0,1,1145,486.50000000000006) translate(22.62845679012345 36.84027777777778)"/><use xlink:href="#g" transform="matrix(1,0,0,1,1145,486.50000000000006) translate(46.08524691358024 36.84027777777778)"/><path d="M1300.1 877.3h33c3.3 0 6-2.7 6-6V723.6c0-3.32 2.67-6 6-6H1614c3.3 0 6 2.68 6 6v15.5" stroke="#5e5e5e" stroke-width="2" fill="none"/><path d="M1300.1 878.3h-1.1l.14-1.6-.1-.4h1.07z" fill="#5e5e5e"/><path d="M1620 754.36l-4.64-14.27h9.28z" stroke="#5e5e5e" stroke-width="2" fill="#5e5e5e"/><path d="M1140 1148.5c0-3.3 2.7-6 6-6h148c3.3 0 6 2.7 6 6v68c0 3.3-2.7 6-6 6h-148c-3.3 0-6-2.7-6-6z" stroke="#0c7cba" stroke-width="3" fill="#d1bcd2"/><path d="M1156 1142.5v80m128-80v80" stroke="#0c7cba" stroke-width="3" fill="none"/><g><use xlink:href="#b" transform="matrix(1,0,0,1,1165,1147.5000000000005) translate(0.21604938271604368 26.111111111111114)"/><use xlink:href="#c" transform="matrix(1,0,0,1,1165,1147.5000000000005) translate(-2.2839506172839563 52.77777777777778)"/></g><path d="M880 1106.5c0-3.3 2.7-6 6-6h228c3.3 0 6 2.7 6 6v110c0 3.3-2.7 6-6 6H886c-3.3 0-6-2.7-6-6z" stroke="#000" stroke-opacity="0" stroke-width="3" fill="#fff" fill-opacity="0"/><g><use xlink:href="#W" transform="matrix(1,0,0,1,885,1105.4999999999998) translate(62.932098765432094 42.54513888888889)"/><use xlink:href="#X" transform="matrix(1,0,0,1,885,1105.4999999999998) translate(26.98148148148148 79.87847222222223)"/></g><path d="M1167.97 1226.95c2.23-2.46 6.72-4.45 10.03-4.45h84c3.3 0 7.8 2 10.03 4.45l23.94 26.4c2.23 2.45 2.23 6.43 0 8.9l-23.94 26.4c-2.23 2.45-6.72 4.44-10.03 4.44h-84c-3.3 0-7.8-2-10.03-4.46l-23.94-26.4c-2.23-2.46-2.23-6.44 0-8.9z" stroke="#ef8d22" stroke-width="3" fill="#ffdba9"/><g><use xlink:href="#f" transform="matrix(1,0,0,1,1145,1227.5000000000002) translate(22.62845679012345 36.84027777777778)"/><use xlink:href="#g" transform="matrix(1,0,0,1,1145,1227.5000000000002) translate(46.08524691358024 36.84027777777778)"/></g><path d="M1540 1067.5c0-3.3 2.7-6 6-6h148c3.3 0 6 2.7 6 6v68c0 3.3-2.7 6-6 6h-148c-3.3 0-6-2.7-6-6z" stroke="#c92d39" stroke-width="3" fill="#d1bcd2"/><path d="M1556 1061.5v80m128-80v80" stroke="#c92d39" stroke-width="3" fill="none"/><g><use xlink:href="#d" transform="matrix(1,0,0,1,1565,1066.5) translate(24.783950617283953 26.111111111111114)"/><use xlink:href="#e" transform="matrix(1,0,0,1,1565,1066.5) translate(-0.40123456790124123 52.77777777777778)"/></g><path d="M1540 1147.5c0-3.3 2.7-6 6-6h148c3.3 0 6 2.7 6 6v66.47c0 3.32-2.7 6-6 6h-148c-3.3 0-6-2.68-6-6z" stroke="#7ab648" stroke-width="3" fill="#c7e8ac"/><path d="M1556 1141.5v78.47m128-78.47v78.47" stroke="#7ab648" stroke-width="3" fill="none"/><g><use xlink:href="#j" transform="matrix(1,0,0,1,1565,1146.5000000000005) translate(13.086419753086417 25.611111111111114)"/><use xlink:href="#k" transform="matrix(1,0,0,1,1565,1146.5000000000005) translate(4.938271604938265 52.27777777777778)"/><use xlink:href="#l" transform="matrix(1,0,0,1,1565,1146.5000000000005) translate(71.85185185185185 52.27777777777778)"/></g><path d="M40 1066c0-3.3 2.7-6 6-6h248c3.3 0 6 2.7 6 6v148c0 3.3-2.7 6-6 6H46c-3.3 0-6-2.7-6-6z" stroke="#000" stroke-opacity="0" stroke-width="3" fill="#fff" fill-opacity="0"/><g><use xlink:href="#J" transform="matrix(1,0,0,1,45,1065) translate(-9.518518518518505 53.66666666666667)"/><use xlink:href="#Y" transform="matrix(1,0,0,1,45,1065) translate(17.074074074074048 117.66666666666667)"/></g><path d="M380 1106.5c0-3.3 2.7-6 6-6h188c3.3 0 6 2.7 6 6v110c0 3.3-2.7 6-6 6H386c-3.3 0-6-2.7-6-6z" stroke="#000" stroke-opacity="0" stroke-width="3" fill="#fff" fill-opacity="0"/><g><use xlink:href="#Z" transform="matrix(1,0,0,1,385,1105.5) translate(41.50617283950617 42.54513888888889)"/><use xlink:href="#aa" transform="matrix(1,0,0,1,385,1105.5) translate(50.06172839506173 79.87847222222223)"/></g><path d="M661 1130h123c3.3 0 6-2.7 6-6v-98c0-3.3 2.7-6 6-6h418c3.3 0 6 2.7 6 6v15.5M661.03 1130H660" stroke="#5e5e5e" stroke-width="2" fill="none"/><path d="M1220 1056.76l-4.64-14.26h9.28z" stroke="#5e5e5e" stroke-width="2" fill="#5e5e5e"/><g><use xlink:href="#Q" transform="matrix(1,0,0,1,798,1035.244334893661) translate(0 14.222222222222223)"/><use xlink:href="#R" transform="matrix(1,0,0,1,798,1035.244334893661) translate(43.40740740740741 14.222222222222223)"/><use xlink:href="#ab" transform="matrix(1,0,0,1,798,1035.244334893661) translate(114.37037037037038 14.222222222222223)"/></g><path d="M1300.1 1257.8h33c3.3 0 6-2.7 6-6V1026c0-3.3 2.67-6 6-6H1614c3.3 0 6 2.7 6 6v15.5" stroke="#5e5e5e" stroke-width="2" fill="none"/><path d="M1300.1 1258.8h-1.1l.14-1.6-.1-.4h1.07z" fill="#5e5e5e"/><path d="M1620 1056.76l-4.64-14.26h9.28z" stroke="#5e5e5e" stroke-width="2" fill="#5e5e5e"/><path d="M1140 1067.5c0-3.3 2.7-6 6-6h148c3.3 0 6 2.7 6 6v68c0 3.3-2.7 6-6 6h-148c-3.3 0-6-2.7-6-6z" stroke="#7ab648" stroke-width="3" fill="#d1bcd2"/><path d="M1156 1061.5v80m128-80v80" stroke="#7ab648" stroke-width="3" fill="none"/><g><use xlink:href="#a" transform="matrix(1,0,0,1,1165,1066.5) translate(8.827160493827165 39.44444444444444)"/></g><path d="M141.5 320h15.2m15.22 0h30.42m15.2 0h30.43m15.2 0h30.43m15.2 0h30.42m15.2 0h30.43m15.2 0h30.43m15.2 0h30.43m15.22 0h30.42m15.2 0h30.43m15.2 0H613m15.2 0h30.42m15.2 0h30.43m15.2 0h30.43m15.2 0h30.43m15.22 0h30.42m15.2 0h30.43m15.2 0h30.43m15.2 0h30.42m15.2 0h30.43m15.2 0h30.43m15.2 0h30.43m15.22 0h30.42m15.2 0h30.43m15.2 0h30.43m15.2 0h30.42m15.2 0h30.43m15.2 0h30.43m15.2 0h30.43m15.22 0h30.42m15.2 0h30.43m15.2 0h30.43m15.2 0h30.42m15.2 0h30.43m15.2 0h30.43m15.2 0h15.22M141.54 320H140M1738.46 320h1.54M141.5 660h15.2m15.22 0h30.42m15.2 0h30.43m15.2 0h30.43m15.2 0h30.42m15.2 0h30.43m15.2 0h30.43m15.2 0h30.43m15.22 0h30.42m15.2 0h30.43m15.2 0H613m15.2 0h30.42m15.2 0h30.43m15.2 0h30.43m15.2 0h30.43m15.22 0h30.42m15.2 0h30.43m15.2 0h30.43m15.2 0h30.42m15.2 0h30.43m15.2 0h30.43m15.2 0h30.43m15.22 0h30.42m15.2 0h30.43m15.2 0h30.43m15.2 0h30.42m15.2 0h30.43m15.2 0h30.43m15.2 0h30.43m15.22 0h30.42m15.2 0h30.43m15.2 0h30.43m15.2 0h30.42m15.2 0h30.43m15.2 0h30.43m15.2 0h15.22M141.54 660H140M1738.46 660h1.54M141.5 960h15.2m15.22 0h30.42m15.2 0h30.43m15.2 0h30.43m15.2 0h30.42m15.2 0h30.43m15.2 0h30.43m15.2 0h30.43m15.22 0h30.42m15.2 0h30.43m15.2 0H613m15.2 0h30.42m15.2 0h30.43m15.2 0h30.43m15.2 0h30.43m15.22 0h30.42m15.2 0h30.43m15.2 0h30.43m15.2 0h30.42m15.2 0h30.43m15.2 0h30.43m15.2 0h30.43m15.22 0h30.42m15.2 0h30.43m15.2 0h30.43m15.2 0h30.42m15.2 0h30.43m15.2 0h30.43m15.2 0h30.43m15.22 0h30.42m15.2 0h30.43m15.2 0h30.43m15.2 0h30.42m15.2 0h30.43m15.2 0h30.43m15.2 0h15.22M141.54 960H140M1738.46 960h1.54" stroke="#999" stroke-width="3" fill="none"/><defs><path fill="#333" d="M182-130c37 4 62 22 62 59C244 23 116-4 24 0v-248c84 5 203-23 205 63 0 31-19 50-47 55zM76-148c40-3 101 13 101-30 0-44-60-28-101-31v61zm0 110c48-3 116 14 116-37 0-48-69-32-116-35v72" id="ac"/><path fill="#333" d="M24 0v-248h52v208h133V0H24" id="ad"/><path fill="#333" d="M169-182c-1-43-94-46-97-3 18 66 151 10 154 114 3 95-165 93-204 36-6-8-10-19-12-30l50-8c3 46 112 56 116 5-17-69-150-10-154-114-4-87 153-88 188-35 5 8 8 18 10 28" id="ae"/><path fill="#333" d="M25-224v-37h50v37H25zM25 0v-190h50V0H25" id="af"/><path fill="#333" d="M195-6C206 82 75 100 31 46c-4-6-6-13-8-21l49-6c3 16 16 24 34 25 40 0 42-37 40-79-11 22-30 35-61 35-53 0-70-43-70-97 0-56 18-96 73-97 30 0 46 14 59 34l2-30h47zm-90-29c32 0 41-27 41-63 0-35-9-62-40-62-32 0-39 29-40 63 0 36 9 62 39 62" id="ag"/><path fill="#333" d="M135-194c87-1 58 113 63 194h-50c-7-57 23-157-34-157-59 0-34 97-39 157H25l-1-190h47c2 12-1 28 3 38 12-26 28-41 61-42" id="ah"/><g id="a"><use transform="matrix(0.06172839506172839,0,0,0.06172839506172839,0,0)" xlink:href="#ac"/><use transform="matrix(0.06172839506172839,0,0,0.06172839506172839,15.987654320987653,0)" xlink:href="#ad"/><use transform="matrix(0.06172839506172839,0,0,0.06172839506172839,29.50617283950617,0)" xlink:href="#ae"/><use transform="matrix(0.06172839506172839,0,0,0.06172839506172839,44.32098765432099,0)" xlink:href="#ae"/><use transform="matrix(0.06172839506172839,0,0,0.06172839506172839,59.1358024691358,0)" xlink:href="#af"/><use transform="matrix(0.06172839506172839,0,0,0.06172839506172839,65.30864197530863,0)" xlink:href="#ag"/><use transform="matrix(0.06172839506172839,0,0,0.06172839506172839,78.82716049382715,0)" xlink:href="#ah"/></g><path fill="#333" d="M199 0l-22-63H83L61 0H9l90-248h61L250 0h-51zm-33-102l-36-108c-10 38-24 72-36 108h72" id="ai"/><path fill="#333" d="M135-150c-39-12-60 13-60 57V0H25l-1-190h47c2 13-1 29 3 40 6-28 27-53 61-41v41" id="aj"/><path fill="#333" d="M185-48c-13 30-37 53-82 52C43 2 14-33 14-96s30-98 90-98c62 0 83 45 84 108H66c0 31 8 55 39 56 18 0 30-7 34-22zm-45-69c5-46-57-63-70-21-2 6-4 13-4 21h74" id="ak"/><path fill="#333" d="M133-34C117-15 103 5 69 4 32 3 11-16 11-54c-1-60 55-63 116-61 1-26-3-47-28-47-18 1-26 9-28 27l-52-2c7-38 36-58 82-57s74 22 75 68l1 82c-1 14 12 18 25 15v27c-30 8-71 5-69-32zm-48 3c29 0 43-24 42-57-32 0-66-3-65 30 0 17 8 27 23 27" id="al"/><path fill="#333" d="M115-3C79 11 28 4 28-45v-112H4v-33h27l15-45h31v45h36v33H77v99c-1 23 16 31 38 25v30" id="am"/><g id="b"><use transform="matrix(0.06172839506172839,0,0,0.06172839506172839,0,0)" xlink:href="#ai"/><use transform="matrix(0.06172839506172839,0,0,0.06172839506172839,15.987654320987653,0)" xlink:href="#ag"/><use transform="matrix(0.06172839506172839,0,0,0.06172839506172839,29.50617283950617,0)" xlink:href="#ag"/><use transform="matrix(0.06172839506172839,0,0,0.06172839506172839,43.02469135802469,0)" xlink:href="#aj"/><use transform="matrix(0.06172839506172839,0,0,0.06172839506172839,51.666666666666664,0)" xlink:href="#ak"/><use transform="matrix(0.06172839506172839,0,0,0.06172839506172839,64.01234567901234,0)" xlink:href="#ag"/><use transform="matrix(0.06172839506172839,0,0,0.06172839506172839,77.53086419753086,0)" xlink:href="#al"/><use transform="matrix(0.06172839506172839,0,0,0.06172839506172839,89.87654320987654,0)" xlink:href="#am"/><use transform="matrix(0.06172839506172839,0,0,0.06172839506172839,97.22222222222223,0)" xlink:href="#ak"/></g><path fill="#333" d="M85 4C-2 5 27-109 22-190h50c7 57-23 150 33 157 60-5 35-97 40-157h50l1 190h-47c-2-12 1-28-3-38-12 25-28 42-61 42" id="an"/><path fill="#333" d="M137-138c1-29-70-34-71-4 15 46 118 7 119 86 1 83-164 76-172 9l43-7c4 19 20 25 44 25 33 8 57-30 24-41C81-84 22-81 20-136c-2-80 154-74 161-7" id="ao"/><g id="c"><use transform="matrix(0.06172839506172839,0,0,0.06172839506172839,0,0)" xlink:href="#ae"/><use transform="matrix(0.06172839506172839,0,0,0.06172839506172839,14.814814814814813,0)" xlink:href="#af"/><use transform="matrix(0.06172839506172839,0,0,0.06172839506172839,20.98765432098765,0)" xlink:href="#ag"/><use transform="matrix(0.06172839506172839,0,0,0.06172839506172839,34.50617283950617,0)" xlink:href="#ah"/><use transform="matrix(0.06172839506172839,0,0,0.06172839506172839,48.02469135802469,0)" xlink:href="#al"/><use transform="matrix(0.06172839506172839,0,0,0.06172839506172839,60.37037037037037,0)" xlink:href="#am"/><use transform="matrix(0.06172839506172839,0,0,0.06172839506172839,67.71604938271605,0)" xlink:href="#an"/><use transform="matrix(0.06172839506172839,0,0,0.06172839506172839,81.23456790123457,0)" xlink:href="#aj"/><use transform="matrix(0.06172839506172839,0,0,0.06172839506172839,89.87654320987654,0)" xlink:href="#ak"/><use transform="matrix(0.06172839506172839,0,0,0.06172839506172839,102.22222222222223,0)" xlink:href="#ao"/></g><path fill="#333" d="M147 0H94L2-248h55l64 206c17-72 42-137 63-206h54" id="ap"/><path fill="#333" d="M121-226c-27-7-43 5-38 36h38v33H83V0H34v-157H6v-33h28c-9-59 32-81 87-68v32" id="aq"/><path fill="#333" d="M123 10C108 53 80 86 19 72V37c35 8 53-11 59-39L3-190h52l48 148c12-52 28-100 44-148h51" id="ar"/><g id="d"><use transform="matrix(0.06172839506172839,0,0,0.06172839506172839,0,0)" xlink:href="#ap"/><use transform="matrix(0.06172839506172839,0,0,0.06172839506172839,13.580246913580245,0)" xlink:href="#ak"/><use transform="matrix(0.06172839506172839,0,0,0.06172839506172839,25.925925925925924,0)" xlink:href="#aj"/><use transform="matrix(0.06172839506172839,0,0,0.06172839506172839,34.5679012345679,0)" xlink:href="#af"/><use transform="matrix(0.06172839506172839,0,0,0.06172839506172839,40.74074074074074,0)" xlink:href="#aq"/><use transform="matrix(0.06172839506172839,0,0,0.06172839506172839,48.08641975308642,0)" xlink:href="#ar"/></g><path fill="#333" d="M88-194c31-1 46 15 58 34l-1-101h50l1 261h-48c-2-10 0-23-3-31C134-8 116 4 84 4 32 4 16-41 15-95c0-56 19-97 73-99zm17 164c33 0 40-30 41-66 1-37-9-64-41-64s-38 30-39 65c0 43 13 65 39 65" id="as"/><path fill="#333" d="M4 7l51-268h42L46 7H4" id="at"/><path fill="#333" d="M67-93c0 74 22 123 53 168H70C40 30 18-18 18-93s22-123 52-168h50c-32 44-53 94-53 168" id="au"/><path fill="#333" d="M102-93c0 74-22 123-52 168H0C30 29 54-18 53-93c0-74-22-123-53-168h50c30 45 52 94 52 168" id="av"/><g id="e"><use transform="matrix(0.06172839506172839,0,0,0.06172839506172839,0,0)" xlink:href="#as"/><use transform="matrix(0.06172839506172839,0,0,0.06172839506172839,13.518518518518517,0)" xlink:href="#al"/><use transform="matrix(0.06172839506172839,0,0,0.06172839506172839,25.864197530864196,0)" xlink:href="#am"/><use transform="matrix(0.06172839506172839,0,0,0.06172839506172839,33.20987654320987,0)" xlink:href="#al"/><use transform="matrix(0.06172839506172839,0,0,0.06172839506172839,45.55555555555555,0)" xlink:href="#at"/><use transform="matrix(0.06172839506172839,0,0,0.06172839506172839,51.72839506172839,0)" xlink:href="#ao"/><use transform="matrix(0.06172839506172839,0,0,0.06172839506172839,64.07407407407408,0)" xlink:href="#af"/><use transform="matrix(0.06172839506172839,0,0,0.06172839506172839,70.24691358024691,0)" xlink:href="#ag"/><use transform="matrix(0.06172839506172839,0,0,0.06172839506172839,83.76543209876543,0)" xlink:href="#au"/><use transform="matrix(0.06172839506172839,0,0,0.06172839506172839,91.11111111111111,0)" xlink:href="#ao"/><use transform="matrix(0.06172839506172839,0,0,0.06172839506172839,103.4567901234568,0)" xlink:href="#av"/></g><path fill="#333" d="M59-47c-2 24 18 29 38 22v24C64 9 27 4 27-40v-127H5v-23h24l9-43h21v43h35v23H59v120" id="aw"/><path fill="#333" d="M141 0L90-78 38 0H4l68-98-65-92h35l48 74 47-74h35l-64 92 68 98h-35" id="ax"/><g id="f"><use transform="matrix(0.06172839506172839,0,0,0.06172839506172839,0,0)" xlink:href="#aw"/><use transform="matrix(0.06172839506172839,0,0,0.06172839506172839,6.172839506172839,0)" xlink:href="#ax"/></g><path fill="#333" d="M100-194c62-1 85 37 85 99 1 63-27 99-86 99S16-35 15-95c0-66 28-99 85-99zM99-20c44 1 53-31 53-75 0-43-8-75-51-75s-53 32-53 75 10 74 51 75" id="ay"/><path fill="#333" d="M114-163C36-179 61-72 57 0H25l-1-190h30c1 12-1 29 2 39 6-27 23-49 58-41v29" id="az"/><path fill="#333" d="M85-194c31 0 48 13 60 33l-1-100h32l1 261h-30c-2-10 0-23-3-31C134-8 116 4 85 4 32 4 16-35 15-94c0-66 23-100 70-100zm9 24c-40 0-46 34-46 75 0 40 6 74 45 74 42 0 51-32 51-76 0-42-9-74-50-73" id="aA"/><path fill="#333" d="M100-194c63 0 86 42 84 106H49c0 40 14 67 53 68 26 1 43-12 49-29l28 8c-11 28-37 45-77 45C44 4 14-33 15-96c1-61 26-98 85-98zm52 81c6-60-76-77-97-28-3 7-6 17-6 28h103" id="aB"/><path fill="#333" d="M24-231v-30h32v30H24zM24 0v-190h32V0H24" id="aC"/><path fill="#333" d="M117-194c89-4 53 116 60 194h-32v-121c0-31-8-49-39-48C34-167 62-67 57 0H25l-1-190h30c1 10-1 24 2 32 11-22 29-35 61-36" id="aD"/><path fill="#333" d="M177-190C167-65 218 103 67 71c-23-6-38-20-44-43l32-5c15 47 100 32 89-28v-30C133-14 115 1 83 1 29 1 15-40 15-95c0-56 16-97 71-98 29-1 48 16 59 35 1-10 0-23 2-32h30zM94-22c36 0 50-32 50-73 0-42-14-75-50-75-39 0-46 34-46 75s6 73 46 73" id="aE"/><g id="g"><use transform="matrix(0.06172839506172839,0,0,0.06172839506172839,0,0)" xlink:href="#ay"/><use transform="matrix(0.06172839506172839,0,0,0.06172839506172839,12.345679012345679,0)" xlink:href="#az"/><use transform="matrix(0.06172839506172839,0,0,0.06172839506172839,19.691358024691358,0)" xlink:href="#aA"/><use transform="matrix(0.06172839506172839,0,0,0.06172839506172839,32.03703703703704,0)" xlink:href="#aB"/><use transform="matrix(0.06172839506172839,0,0,0.06172839506172839,44.382716049382715,0)" xlink:href="#az"/><use transform="matrix(0.06172839506172839,0,0,0.06172839506172839,51.72839506172839,0)" xlink:href="#aC"/><use transform="matrix(0.06172839506172839,0,0,0.06172839506172839,56.60493827160494,0)" xlink:href="#aD"/><use transform="matrix(0.06172839506172839,0,0,0.06172839506172839,68.95061728395062,0)" xlink:href="#aE"/></g><path fill="#333" d="M212-179c-10-28-35-45-73-45-59 0-87 40-87 99 0 60 29 101 89 101 43 0 62-24 78-52l27 14C228-24 195 4 139 4 59 4 22-46 18-125c-6-104 99-153 187-111 19 9 31 26 39 46" id="aF"/><path fill="#333" d="M24 0v-261h32V0H24" id="aG"/><g id="h"><use transform="matrix(0.14814814814814817,0,0,0.14814814814814817,0,0)" xlink:href="#aF"/><use transform="matrix(0.14814814814814817,0,0,0.14814814814814817,38.370370370370374,0)" xlink:href="#aG"/><use transform="matrix(0.14814814814814817,0,0,0.14814814814814817,50.07407407407407,0)" xlink:href="#aC"/><use transform="matrix(0.14814814814814817,0,0,0.14814814814814817,61.777777777777786,0)" xlink:href="#aB"/><use transform="matrix(0.14814814814814817,0,0,0.14814814814814817,91.40740740740742,0)" xlink:href="#aD"/><use transform="matrix(0.14814814814814817,0,0,0.14814814814814817,121.03703703703705,0)" xlink:href="#aw"/></g><path fill="#333" d="M266 0h-40l-56-210L115 0H75L2-248h35L96-30l15-64 43-154h32l59 218 59-218h35" id="aH"/><path fill="#333" d="M115-194c53 0 69 39 70 98 0 66-23 100-70 100C84 3 66-7 56-30L54 0H23l1-261h32v101c10-23 28-34 59-34zm-8 174c40 0 45-34 45-75 0-40-5-75-45-74-42 0-51 32-51 76 0 43 10 73 51 73" id="aI"/><path fill="#333" d="M126-127c33 6 58 20 58 59 0 88-139 92-164 29-3-8-5-16-6-25l32-3c6 27 21 44 54 44 32 0 52-15 52-46 0-38-36-46-79-43v-28c39 1 72-4 72-42 0-27-17-43-46-43-28 0-47 15-49 41l-32-3c6-42 35-63 81-64 48-1 79 21 79 65 0 36-21 52-52 59" id="aJ"/><g id="i"><use transform="matrix(0.14814814814814817,0,0,0.14814814814814817,0,0)" xlink:href="#aH"/><use transform="matrix(0.14814814814814817,0,0,0.14814814814814817,49.18518518518519,0)" xlink:href="#aB"/><use transform="matrix(0.14814814814814817,0,0,0.14814814814814817,78.81481481481482,0)" xlink:href="#aI"/><use transform="matrix(0.14814814814814817,0,0,0.14814814814814817,108.44444444444446,0)" xlink:href="#aJ"/></g><path fill="#333" d="M141-36C126-15 110 5 73 4 37 3 15-17 15-53c-1-64 63-63 125-63 3-35-9-54-41-54-24 1-41 7-42 31l-33-3c5-37 33-52 76-52 45 0 72 20 72 64v82c-1 20 7 32 28 27v20c-31 9-61-2-59-35zM48-53c0 20 12 33 32 33 41-3 63-29 60-74-43 2-92-5-92 41" id="aK"/><path fill="#333" d="M96-169c-40 0-48 33-48 73s9 75 48 75c24 0 41-14 43-38l32 2c-6 37-31 61-74 61-59 0-76-41-82-99-10-93 101-131 147-64 4 7 5 14 7 22l-32 3c-4-21-16-35-41-35" id="aL"/><g id="j"><use transform="matrix(0.06172839506172839,0,0,0.06172839506172839,0,0)" xlink:href="#aF"/><use transform="matrix(0.06172839506172839,0,0,0.06172839506172839,15.987654320987653,0)" xlink:href="#ay"/><use transform="matrix(0.06172839506172839,0,0,0.06172839506172839,28.333333333333332,0)" xlink:href="#aD"/><use transform="matrix(0.06172839506172839,0,0,0.06172839506172839,40.67901234567901,0)" xlink:href="#aw"/><use transform="matrix(0.06172839506172839,0,0,0.06172839506172839,46.851851851851855,0)" xlink:href="#az"/><use transform="matrix(0.06172839506172839,0,0,0.06172839506172839,54.19753086419753,0)" xlink:href="#aK"/><use transform="matrix(0.06172839506172839,0,0,0.06172839506172839,66.54320987654322,0)" xlink:href="#aL"/><use transform="matrix(0.06172839506172839,0,0,0.06172839506172839,77.65432098765433,0)" xlink:href="#aw"/></g><g id="k"><use transform="matrix(0.06172839506172839,0,0,0.06172839506172839,0,0)" xlink:href="#aH"/><use transform="matrix(0.06172839506172839,0,0,0.06172839506172839,20.123456790123456,0)" xlink:href="#aK"/><use transform="matrix(0.06172839506172839,0,0,0.06172839506172839,32.46913580246913,0)" xlink:href="#aG"/><use transform="matrix(0.06172839506172839,0,0,0.06172839506172839,37.34567901234568,0)" xlink:href="#aG"/><use transform="matrix(0.06172839506172839,0,0,0.06172839506172839,42.22222222222222,0)" xlink:href="#aB"/><use transform="matrix(0.06172839506172839,0,0,0.06172839506172839,54.5679012345679,0)" xlink:href="#aw"/></g><g id="l"><use transform="matrix(0.06172839506172839,0,0,0.06172839506172839,0,0)" xlink:href="#aL"/><use transform="matrix(0.06172839506172839,0,0,0.06172839506172839,11.11111111111111,0)" xlink:href="#aK"/><use transform="matrix(0.06172839506172839,0,0,0.06172839506172839,23.45679012345679,0)" xlink:href="#aG"/><use transform="matrix(0.06172839506172839,0,0,0.06172839506172839,28.333333333333336,0)" xlink:href="#aG"/></g><path fill="#333" d="M101-251c82-7 93 87 43 132L82-64C71-53 59-42 53-27h129V0H18c2-99 128-94 128-182 0-28-16-43-45-43s-46 15-49 41l-32-3c6-41 34-60 81-64" id="aM"/><g id="m"><use transform="matrix(0.14814814814814817,0,0,0.14814814814814817,0,0)" xlink:href="#aH"/><use transform="matrix(0.14814814814814817,0,0,0.14814814814814817,49.18518518518519,0)" xlink:href="#aB"/><use transform="matrix(0.14814814814814817,0,0,0.14814814814814817,78.81481481481482,0)" xlink:href="#aI"/><use transform="matrix(0.14814814814814817,0,0,0.14814814814814817,108.44444444444446,0)" xlink:href="#aM"/></g><path fill="#333" d="M30 0v-248h33v221h125V0H30" id="aN"/><path fill="#333" d="M33 0v-248h34V0H33" id="aO"/><g id="n"><use transform="matrix(0.08641975308641976,0,0,0.08641975308641976,0,0)" xlink:href="#aF"/><use transform="matrix(0.08641975308641976,0,0,0.08641975308641976,22.38271604938272,0)" xlink:href="#aN"/><use transform="matrix(0.08641975308641976,0,0,0.08641975308641976,39.66666666666667,0)" xlink:href="#aO"/></g><path fill="#333" d="M197 0v-115H63V0H30v-248h33v105h134v-105h34V0h-34" id="aP"/><path fill="#333" d="M135-143c-3-34-86-38-87 0 15 53 115 12 119 90S17 21 10-45l28-5c4 36 97 45 98 0-10-56-113-15-118-90-4-57 82-63 122-42 12 7 21 19 24 35" id="aQ"/><g id="o"><use transform="matrix(0.08641975308641976,0,0,0.08641975308641976,0,0)" xlink:href="#aP"/><use transform="matrix(0.08641975308641976,0,0,0.08641975308641976,22.38271604938272,0)" xlink:href="#ay"/><use transform="matrix(0.08641975308641976,0,0,0.08641975308641976,39.66666666666667,0)" xlink:href="#aQ"/><use transform="matrix(0.08641975308641976,0,0,0.08641975308641976,55.22222222222223,0)" xlink:href="#aw"/><use transform="matrix(0.08641975308641976,0,0,0.08641975308641976,63.8641975308642,0)" xlink:href="#aB"/><use transform="matrix(0.08641975308641976,0,0,0.08641975308641976,81.14814814814815,0)" xlink:href="#aA"/></g><path fill="#333" d="M108 0H70L1-190h34L89-25l56-165h34" id="aR"/><g id="p"><use transform="matrix(0.08641975308641976,0,0,0.08641975308641976,0,0)" xlink:href="#aQ"/><use transform="matrix(0.08641975308641976,0,0,0.08641975308641976,15.555555555555557,0)" xlink:href="#aB"/><use transform="matrix(0.08641975308641976,0,0,0.08641975308641976,32.839506172839506,0)" xlink:href="#az"/><use transform="matrix(0.08641975308641976,0,0,0.08641975308641976,43.123456790123456,0)" xlink:href="#aR"/><use transform="matrix(0.08641975308641976,0,0,0.08641975308641976,58.679012345679006,0)" xlink:href="#aC"/><use transform="matrix(0.08641975308641976,0,0,0.08641975308641976,65.50617283950618,0)" xlink:href="#aL"/><use transform="matrix(0.08641975308641976,0,0,0.08641975308641976,81.06172839506173,0)" xlink:href="#aB"/></g><path fill="#333" d="M160-131c35 5 61 23 61 61C221 17 115-2 30 0v-248c76 3 177-17 177 60 0 33-19 50-47 57zm-97-11c50-1 110 9 110-42 0-47-63-36-110-37v79zm0 115c55-2 124 14 124-45 0-56-70-42-124-44v89" id="aS"/><path fill="#333" d="M206 0h-36l-40-164L89 0H53L-1-190h32L70-26l43-164h34l41 164 42-164h31" id="aT"/><g id="q"><use transform="matrix(0.08641975308641976,0,0,0.08641975308641976,0,0)" xlink:href="#aS"/><use transform="matrix(0.08641975308641976,0,0,0.08641975308641976,20.740740740740744,0)" xlink:href="#az"/><use transform="matrix(0.08641975308641976,0,0,0.08641975308641976,31.024691358024693,0)" xlink:href="#ay"/><use transform="matrix(0.08641975308641976,0,0,0.08641975308641976,48.308641975308646,0)" xlink:href="#aT"/><use transform="matrix(0.08641975308641976,0,0,0.08641975308641976,70.69135802469137,0)" xlink:href="#aQ"/><use transform="matrix(0.08641975308641976,0,0,0.08641975308641976,86.24691358024693,0)" xlink:href="#aB"/><use transform="matrix(0.08641975308641976,0,0,0.08641975308641976,103.53086419753087,0)" xlink:href="#az"/></g><path fill="#333" d="M68-38c1 34 0 65-14 84H32c9-13 17-26 17-46H33v-38h35" id="aU"/><g id="r"><use transform="matrix(0.08641975308641976,0,0,0.08641975308641976,0,0)" xlink:href="#aB"/><use transform="matrix(0.08641975308641976,0,0,0.08641975308641976,17.283950617283953,0)" xlink:href="#ax"/><use transform="matrix(0.08641975308641976,0,0,0.08641975308641976,32.839506172839506,0)" xlink:href="#aw"/><use transform="matrix(0.08641975308641976,0,0,0.08641975308641976,41.48148148148148,0)" xlink:href="#aB"/><use transform="matrix(0.08641975308641976,0,0,0.08641975308641976,58.76543209876543,0)" xlink:href="#aD"/><use transform="matrix(0.08641975308641976,0,0,0.08641975308641976,76.04938271604938,0)" xlink:href="#aQ"/><use transform="matrix(0.08641975308641976,0,0,0.08641975308641976,91.60493827160492,0)" xlink:href="#aC"/><use transform="matrix(0.08641975308641976,0,0,0.08641975308641976,98.43209876543212,0)" xlink:href="#ay"/><use transform="matrix(0.08641975308641976,0,0,0.08641975308641976,115.71604938271604,0)" xlink:href="#aD"/><use transform="matrix(0.08641975308641976,0,0,0.08641975308641976,133,0)" xlink:href="#aU"/></g><g id="s"><use transform="matrix(0.08641975308641976,0,0,0.08641975308641976,0,0)" xlink:href="#aH"/><use transform="matrix(0.08641975308641976,0,0,0.08641975308641976,28.172839506172842,0)" xlink:href="#aK"/><use transform="matrix(0.08641975308641976,0,0,0.08641975308641976,45.4567901234568,0)" xlink:href="#aG"/><use transform="matrix(0.08641975308641976,0,0,0.08641975308641976,52.28395061728396,0)" xlink:href="#aG"/><use transform="matrix(0.08641975308641976,0,0,0.08641975308641976,59.11111111111113,0)" xlink:href="#aB"/><use transform="matrix(0.08641975308641976,0,0,0.08641975308641976,76.39506172839508,0)" xlink:href="#aw"/></g><path fill="#333" d="M115-194c55 1 70 41 70 98S169 2 115 4C84 4 66-9 55-30l1 105H24l-1-265h31l2 30c10-21 28-34 59-34zm-8 174c40 0 45-34 45-75s-6-73-45-74c-42 0-51 32-51 76 0 43 10 73 51 73" id="aV"/><g id="t"><use transform="matrix(0.08641975308641976,0,0,0.08641975308641976,0,0)" xlink:href="#aK"/><use transform="matrix(0.08641975308641976,0,0,0.08641975308641976,17.283950617283953,0)" xlink:href="#aV"/><use transform="matrix(0.08641975308641976,0,0,0.08641975308641976,34.567901234567906,0)" xlink:href="#aV"/></g><g id="u"><use transform="matrix(0.08641975308641976,0,0,0.08641975308641976,0,0)" xlink:href="#aO"/><use transform="matrix(0.08641975308641976,0,0,0.08641975308641976,8.641975308641976,0)" xlink:href="#aD"/><use transform="matrix(0.08641975308641976,0,0,0.08641975308641976,25.925925925925927,0)" xlink:href="#aL"/><use transform="matrix(0.08641975308641976,0,0,0.08641975308641976,41.48148148148149,0)" xlink:href="#aB"/><use transform="matrix(0.08641975308641976,0,0,0.08641975308641976,58.76543209876545,0)" xlink:href="#aD"/><use transform="matrix(0.08641975308641976,0,0,0.08641975308641976,76.0493827160494,0)" xlink:href="#aw"/><use transform="matrix(0.08641975308641976,0,0,0.08641975308641976,84.69135802469137,0)" xlink:href="#aC"/><use transform="matrix(0.08641975308641976,0,0,0.08641975308641976,91.51851851851853,0)" xlink:href="#aR"/><use transform="matrix(0.08641975308641976,0,0,0.08641975308641976,107.07407407407409,0)" xlink:href="#aC"/><use transform="matrix(0.08641975308641976,0,0,0.08641975308641976,113.90123456790124,0)" xlink:href="#aQ"/><use transform="matrix(0.08641975308641976,0,0,0.08641975308641976,129.4567901234568,0)" xlink:href="#aB"/><use transform="matrix(0.08641975308641976,0,0,0.08641975308641976,146.74074074074076,0)" xlink:href="#aA"/></g><path fill="#333" d="M190 0L58-211 59 0H30v-248h39L202-35l-2-213h31V0h-41" id="aW"/><path fill="#333" d="M143 0L79-87 56-68V0H24v-261h32v163l83-92h37l-77 82L181 0h-38" id="aX"/><g id="v"><use transform="matrix(0.08641975308641976,0,0,0.08641975308641976,0,0)" xlink:href="#aW"/><use transform="matrix(0.08641975308641976,0,0,0.08641975308641976,22.38271604938272,0)" xlink:href="#aB"/><use transform="matrix(0.08641975308641976,0,0,0.08641975308641976,39.66666666666667,0)" xlink:href="#aw"/><use transform="matrix(0.08641975308641976,0,0,0.08641975308641976,48.308641975308646,0)" xlink:href="#aT"/><use transform="matrix(0.08641975308641976,0,0,0.08641975308641976,70.69135802469137,0)" xlink:href="#ay"/><use transform="matrix(0.08641975308641976,0,0,0.08641975308641976,87.97530864197532,0)" xlink:href="#az"/><use transform="matrix(0.08641975308641976,0,0,0.08641975308641976,98.25925925925927,0)" xlink:href="#aX"/></g><path fill="#333" d="M140-251c81 0 123 46 123 126C263-46 219 4 140 4 59 4 17-45 17-125s42-126 123-126zm0 227c63 0 89-41 89-101s-29-99-89-99c-61 0-89 39-89 99S79-25 140-24" id="aY"/><g id="w"><use transform="matrix(0.08641975308641976,0,0,0.08641975308641976,0,0)" xlink:href="#aY"/><use transform="matrix(0.08641975308641976,0,0,0.08641975308641976,24.19753086419753,0)" xlink:href="#az"/><use transform="matrix(0.08641975308641976,0,0,0.08641975308641976,34.48148148148148,0)" xlink:href="#aE"/><use transform="matrix(0.08641975308641976,0,0,0.08641975308641976,51.76543209876543,0)" xlink:href="#aK"/><use transform="matrix(0.08641975308641976,0,0,0.08641975308641976,69.04938271604938,0)" xlink:href="#aD"/><use transform="matrix(0.08641975308641976,0,0,0.08641975308641976,86.33333333333333,0)" xlink:href="#aC"/><use transform="matrix(0.08641975308641976,0,0,0.08641975308641976,93.16049382716048,0)" xlink:href="#aQ"/><use transform="matrix(0.08641975308641976,0,0,0.08641975308641976,108.71604938271604,0)" xlink:href="#aK"/><use transform="matrix(0.08641975308641976,0,0,0.08641975308641976,126,0)" xlink:href="#aw"/><use transform="matrix(0.08641975308641976,0,0,0.08641975308641976,134.64197530864197,0)" xlink:href="#aC"/><use transform="matrix(0.08641975308641976,0,0,0.08641975308641976,141.46913580246914,0)" xlink:href="#ay"/><use transform="matrix(0.08641975308641976,0,0,0.08641975308641976,158.7530864197531,0)" xlink:href="#aD"/></g><path fill="#333" d="M144 0l-44-69L55 0H2l70-98-66-92h53l41 62 40-62h54l-67 91 71 99h-54" id="aZ"/><g id="x"><use transform="matrix(0.04938271604938272,0,0,0.04938271604938272,0,0)" xlink:href="#am"/><use transform="matrix(0.04938271604938272,0,0,0.04938271604938272,5.8765432098765435,0)" xlink:href="#aZ"/></g><g id="y"><use transform="matrix(0.04938271604938272,0,0,0.04938271604938272,0,0)" xlink:href="#as"/><use transform="matrix(0.04938271604938272,0,0,0.04938271604938272,10.814814814814815,0)" xlink:href="#al"/><use transform="matrix(0.04938271604938272,0,0,0.04938271604938272,20.69135802469136,0)" xlink:href="#am"/><use transform="matrix(0.04938271604938272,0,0,0.04938271604938272,26.567901234567902,0)" xlink:href="#al"/></g><path fill="#333" d="M231 0h-52l-39-155L100 0H48L-1-190h46L77-45c9-52 24-97 36-145h53l37 145 32-145h46" id="ba"/><path fill="#333" d="M114-157C55-157 80-60 75 0H25v-261h50l-1 109c12-26 28-41 61-42 86-1 58 113 63 194h-50c-7-57 23-157-34-157" id="bb"/><g id="z"><use transform="matrix(0.04938271604938272,0,0,0.04938271604938272,0,0)" xlink:href="#ba"/><use transform="matrix(0.04938271604938272,0,0,0.04938271604938272,13.827160493827162,0)" xlink:href="#af"/><use transform="matrix(0.04938271604938272,0,0,0.04938271604938272,18.765432098765434,0)" xlink:href="#am"/><use transform="matrix(0.04938271604938272,0,0,0.04938271604938272,24.641975308641978,0)" xlink:href="#bb"/></g><g id="A"><use transform="matrix(0.04938271604938272,0,0,0.04938271604938272,0,0)" xlink:href="#aq"/><use transform="matrix(0.04938271604938272,0,0,0.04938271604938272,5.8765432098765435,0)" xlink:href="#ak"/><use transform="matrix(0.04938271604938272,0,0,0.04938271604938272,15.753086419753087,0)" xlink:href="#ak"/></g><path fill="#333" d="M190-63c-7 42-38 67-86 67-59 0-84-38-90-98-12-110 154-137 174-36l-49 2c-2-19-15-32-35-32-30 0-35 28-38 64-6 74 65 87 74 30" id="bc"/><path fill="#333" d="M128 0H69L1-190h53L99-40l48-150h52" id="bd"/><g id="B"><use transform="matrix(0.04938271604938272,0,0,0.04938271604938272,0,0)" xlink:href="#af"/><use transform="matrix(0.04938271604938272,0,0,0.04938271604938272,4.938271604938272,0)" xlink:href="#ah"/><use transform="matrix(0.04938271604938272,0,0,0.04938271604938272,15.753086419753087,0)" xlink:href="#bc"/><use transform="matrix(0.04938271604938272,0,0,0.04938271604938272,25.629629629629633,0)" xlink:href="#ak"/><use transform="matrix(0.04938271604938272,0,0,0.04938271604938272,35.50617283950618,0)" xlink:href="#ah"/><use transform="matrix(0.04938271604938272,0,0,0.04938271604938272,46.320987654320994,0)" xlink:href="#am"/><use transform="matrix(0.04938271604938272,0,0,0.04938271604938272,52.19753086419754,0)" xlink:href="#af"/><use transform="matrix(0.04938271604938272,0,0,0.04938271604938272,57.135802469135804,0)" xlink:href="#bd"/><use transform="matrix(0.04938271604938272,0,0,0.04938271604938272,67.01234567901236,0)" xlink:href="#ak"/></g><g id="C"><use transform="matrix(0.04938271604938272,0,0,0.04938271604938272,0,0)" xlink:href="#as"/><use transform="matrix(0.04938271604938272,0,0,0.04938271604938272,10.814814814814815,0)" xlink:href="#al"/><use transform="matrix(0.04938271604938272,0,0,0.04938271604938272,20.69135802469136,0)" xlink:href="#am"/><use transform="matrix(0.04938271604938272,0,0,0.04938271604938272,26.567901234567902,0)" xlink:href="#al"/></g><path fill="#333" d="M135-194c53 0 70 44 70 98 0 56-19 98-73 100-31 1-45-17-59-34 3 33 2 69 2 105H25l-1-265h48c2 10 0 23 3 31 11-24 29-35 60-35zM114-30c33 0 39-31 40-66 0-38-9-64-40-64-56 0-55 130 0 130" id="be"/><g id="D"><use transform="matrix(0.04938271604938272,0,0,0.04938271604938272,0,0)" xlink:href="#au"/><use transform="matrix(0.04938271604938272,0,0,0.04938271604938272,5.8765432098765435,0)" xlink:href="#be"/><use transform="matrix(0.04938271604938272,0,0,0.04938271604938272,16.691358024691358,0)" xlink:href="#al"/><use transform="matrix(0.04938271604938272,0,0,0.04938271604938272,26.567901234567902,0)" xlink:href="#ar"/></g><path fill="#333" d="M182-182c0 78-84 86-111 141h115V0H12c-6-101 99-100 120-180 1-22-12-31-33-32-23 0-32 14-35 34l-49-3c5-45 32-70 84-70 51 0 83 22 83 69" id="bf"/><g id="E"><use transform="matrix(0.04938271604938272,0,0,0.04938271604938272,0,0)" xlink:href="#ad"/><use transform="matrix(0.04938271604938272,0,0,0.04938271604938272,10.814814814814815,0)" xlink:href="#bf"/></g><g id="F"><use transform="matrix(0.04938271604938272,0,0,0.04938271604938272,0,0)" xlink:href="#aq"/><use transform="matrix(0.04938271604938272,0,0,0.04938271604938272,5.8765432098765435,0)" xlink:href="#ak"/><use transform="matrix(0.04938271604938272,0,0,0.04938271604938272,15.753086419753087,0)" xlink:href="#ak"/><use transform="matrix(0.04938271604938272,0,0,0.04938271604938272,25.629629629629633,0)" xlink:href="#av"/></g><path fill="#333" d="M240 0l2-218c-23 76-54 145-80 218h-23L58-218 59 0H30v-248h44l77 211c21-75 51-140 76-211h43V0h-30" id="bg"/><path fill="#333" d="M137 0h-34L2-248h35l83 218 83-218h36" id="bh"/><path fill="#333" d="M30-248c87 1 191-15 191 75 0 78-77 80-158 76V0H30v-248zm33 125c57 0 124 11 124-50 0-59-68-47-124-48v98" id="bi"/><g id="G"><use transform="matrix(0.14814814814814817,0,0,0.14814814814814817,0,0)" xlink:href="#bg"/><use transform="matrix(0.14814814814814817,0,0,0.14814814814814817,44.296296296296305,0)" xlink:href="#bh"/><use transform="matrix(0.14814814814814817,0,0,0.14814814814814817,79.85185185185186,0)" xlink:href="#bi"/></g><g id="H"><use transform="matrix(0.14814814814814817,0,0,0.14814814814814817,0,0)" xlink:href="#aH"/><use transform="matrix(0.14814814814814817,0,0,0.14814814814814817,49.18518518518519,0)" xlink:href="#aB"/><use transform="matrix(0.14814814814814817,0,0,0.14814814814814817,78.81481481481482,0)" xlink:href="#aI"/><use transform="matrix(0.14814814814814817,0,0,0.14814814814814817,108.44444444444446,0)" xlink:href="#aJ"/></g><path fill="#333" d="M232-93c-1 65-40 97-104 97C67 4 28-28 28-90v-158h33c8 89-33 224 67 224 102 0 64-133 71-224h33v155" id="bj"/><g id="I"><use transform="matrix(0.14814814814814817,0,0,0.14814814814814817,0,0)" xlink:href="#bj"/><use transform="matrix(0.14814814814814817,0,0,0.14814814814814817,38.370370370370374,0)" xlink:href="#aQ"/><use transform="matrix(0.14814814814814817,0,0,0.14814814814814817,65.03703703703704,0)" xlink:href="#aB"/><use transform="matrix(0.14814814814814817,0,0,0.14814814814814817,94.66666666666669,0)" xlink:href="#az"/><use transform="matrix(0.14814814814814817,0,0,0.14814814814814817,112.2962962962963,0)" xlink:href="#aQ"/></g><path fill="#333" d="M210-169c-67 3-38 105-44 169h-31v-121c0-29-5-50-35-48C34-165 62-65 56 0H25l-1-190h30c1 10-1 24 2 32 10-44 99-50 107 0 11-21 27-35 58-36 85-2 47 119 55 194h-31v-121c0-29-5-49-35-48" id="bk"/><path fill="#333" d="M84 4C-5 8 30-112 23-190h32v120c0 31 7 50 39 49 72-2 45-101 50-169h31l1 190h-30c-1-10 1-25-2-33-11 22-28 36-60 37" id="bl"/><path fill="#333" d="M179-190L93 31C79 59 56 82 12 73V49c39 6 53-20 64-50L1-190h34L92-34l54-156h33" id="bm"/><g id="J"><use transform="matrix(0.14814814814814817,0,0,0.14814814814814817,0,0)" xlink:href="#aF"/><use transform="matrix(0.14814814814814817,0,0,0.14814814814814817,38.370370370370374,0)" xlink:href="#ay"/><use transform="matrix(0.14814814814814817,0,0,0.14814814814814817,68,0)" xlink:href="#bk"/><use transform="matrix(0.14814814814814817,0,0,0.14814814814814817,112.2962962962963,0)" xlink:href="#bk"/><use transform="matrix(0.14814814814814817,0,0,0.14814814814814817,156.5925925925926,0)" xlink:href="#bl"/><use transform="matrix(0.14814814814814817,0,0,0.14814814814814817,186.2222222222222,0)" xlink:href="#aD"/><use transform="matrix(0.14814814814814817,0,0,0.14814814814814817,215.85185185185185,0)" xlink:href="#aC"/><use transform="matrix(0.14814814814814817,0,0,0.14814814814814817,227.55555555555554,0)" xlink:href="#aw"/><use transform="matrix(0.14814814814814817,0,0,0.14814814814814817,242.37037037037038,0)" xlink:href="#bm"/></g><path fill="#333" d="M0 4l72-265h28L28 4H0" id="bn"/><use transform="matrix(0.14814814814814817,0,0,0.14814814814814817,0,0)" xlink:href="#bn" id="K"/><g id="L"><use transform="matrix(0.14814814814814817,0,0,0.14814814814814817,0,0)" xlink:href="#aF"/><use transform="matrix(0.14814814814814817,0,0,0.14814814814814817,38.370370370370374,0)" xlink:href="#ay"/><use transform="matrix(0.14814814814814817,0,0,0.14814814814814817,68,0)" xlink:href="#bk"/><use transform="matrix(0.14814814814814817,0,0,0.14814814814814817,112.2962962962963,0)" xlink:href="#aV"/><use transform="matrix(0.14814814814814817,0,0,0.14814814814814817,141.92592592592592,0)" xlink:href="#aK"/><use transform="matrix(0.14814814814814817,0,0,0.14814814814814817,171.55555555555554,0)" xlink:href="#aD"/><use transform="matrix(0.14814814814814817,0,0,0.14814814814814817,201.1851851851852,0)" xlink:href="#bm"/></g><path fill="#333" d="M127-220V0H93v-220H8v-28h204v28h-85" id="bo"/><g id="M"><use transform="matrix(0.14814814814814817,0,0,0.14814814814814817,0,0)" xlink:href="#bo"/><use transform="matrix(0.14814814814814817,0,0,0.14814814814814817,26.518518518518523,0)" xlink:href="#ay"/><use transform="matrix(0.14814814814814817,0,0,0.14814814814814817,56.14814814814815,0)" xlink:href="#aX"/><use transform="matrix(0.14814814814814817,0,0,0.14814814814814817,82.81481481481482,0)" xlink:href="#aB"/><use transform="matrix(0.14814814814814817,0,0,0.14814814814814817,112.44444444444446,0)" xlink:href="#aD"/></g><path fill="#333" d="M16-82v-28h88v28H16" id="bp"/><g id="N"><use transform="matrix(0.08641975308641976,0,0,0.08641975308641976,0,0)" xlink:href="#aN"/><use transform="matrix(0.08641975308641976,0,0,0.08641975308641976,17.283950617283953,0)" xlink:href="#ay"/><use transform="matrix(0.08641975308641976,0,0,0.08641975308641976,34.567901234567906,0)" xlink:href="#aT"/><use transform="matrix(0.08641975308641976,0,0,0.08641975308641976,56.95061728395062,0)" xlink:href="#bp"/><use transform="matrix(0.08641975308641976,0,0,0.08641975308641976,67.23456790123457,0)" xlink:href="#aL"/><use transform="matrix(0.08641975308641976,0,0,0.08641975308641976,82.79012345679013,0)" xlink:href="#ay"/><use transform="matrix(0.08641975308641976,0,0,0.08641975308641976,100.07407407407409,0)" xlink:href="#aQ"/><use transform="matrix(0.08641975308641976,0,0,0.08641975308641976,115.62962962962965,0)" xlink:href="#aw"/></g><path fill="#333" d="M205 0l-28-72H64L36 0H1l101-248h38L239 0h-34zm-38-99l-47-123c-12 45-31 82-46 123h93" id="bq"/><g id="O"><use transform="matrix(0.08641975308641976,0,0,0.08641975308641976,0,0)" xlink:href="#bq"/><use transform="matrix(0.08641975308641976,0,0,0.08641975308641976,20.740740740740744,0)" xlink:href="#aD"/><use transform="matrix(0.08641975308641976,0,0,0.08641975308641976,38.0246913580247,0)" xlink:href="#aA"/><use transform="matrix(0.08641975308641976,0,0,0.08641975308641976,55.308641975308646,0)" xlink:href="#az"/><use transform="matrix(0.08641975308641976,0,0,0.08641975308641976,65.5925925925926,0)" xlink:href="#ay"/><use transform="matrix(0.08641975308641976,0,0,0.08641975308641976,82.87654320987654,0)" xlink:href="#aC"/><use transform="matrix(0.08641975308641976,0,0,0.08641975308641976,89.70370370370371,0)" xlink:href="#aA"/></g><g id="P"><use transform="matrix(0.04938271604938272,0,0,0.04938271604938272,0,0)" xlink:href="#as"/><use transform="matrix(0.04938271604938272,0,0,0.04938271604938272,10.814814814814815,0)" xlink:href="#al"/><use transform="matrix(0.04938271604938272,0,0,0.04938271604938272,20.69135802469136,0)" xlink:href="#am"/><use transform="matrix(0.04938271604938272,0,0,0.04938271604938272,26.567901234567902,0)" xlink:href="#al"/></g><path fill="#333" d="M230 0l2-204L168 0h-37L68-204 70 0H24v-248h70l56 185 57-185h69V0h-46" id="br"/><g id="Q"><use transform="matrix(0.04938271604938272,0,0,0.04938271604938272,0,0)" xlink:href="#ae"/><use transform="matrix(0.04938271604938272,0,0,0.04938271604938272,11.851851851851853,0)" xlink:href="#br"/><use transform="matrix(0.04938271604938272,0,0,0.04938271604938272,26.617283950617285,0)" xlink:href="#ae"/></g><g id="R"><use transform="matrix(0.04938271604938272,0,0,0.04938271604938272,0,0)" xlink:href="#am"/><use transform="matrix(0.04938271604938272,0,0,0.04938271604938272,5.8765432098765435,0)" xlink:href="#aj"/><use transform="matrix(0.04938271604938272,0,0,0.04938271604938272,12.790123456790125,0)" xlink:href="#al"/><use transform="matrix(0.04938271604938272,0,0,0.04938271604938272,22.666666666666668,0)" xlink:href="#ah"/><use transform="matrix(0.04938271604938272,0,0,0.04938271604938272,33.48148148148148,0)" xlink:href="#ao"/><use transform="matrix(0.04938271604938272,0,0,0.04938271604938272,43.358024691358025,0)" xlink:href="#aq"/><use transform="matrix(0.04938271604938272,0,0,0.04938271604938272,49.23456790123457,0)" xlink:href="#ak"/><use transform="matrix(0.04938271604938272,0,0,0.04938271604938272,59.111111111111114,0)" xlink:href="#aj"/></g><g id="S"><use transform="matrix(0.04938271604938272,0,0,0.04938271604938272,0,0)" xlink:href="#as"/><use transform="matrix(0.04938271604938272,0,0,0.04938271604938272,10.814814814814815,0)" xlink:href="#al"/><use transform="matrix(0.04938271604938272,0,0,0.04938271604938272,20.69135802469136,0)" xlink:href="#am"/><use transform="matrix(0.04938271604938272,0,0,0.04938271604938272,26.567901234567902,0)" xlink:href="#al"/></g><g id="T"><use transform="matrix(0.04938271604938272,0,0,0.04938271604938272,0,0)" xlink:href="#al"/><use transform="matrix(0.04938271604938272,0,0,0.04938271604938272,9.876543209876544,0)" xlink:href="#ah"/><use transform="matrix(0.04938271604938272,0,0,0.04938271604938272,20.69135802469136,0)" xlink:href="#as"/></g><g id="U"><use transform="matrix(0.04938271604938272,0,0,0.04938271604938272,0,0)" xlink:href="#ac"/><use transform="matrix(0.04938271604938272,0,0,0.04938271604938272,12.790123456790125,0)" xlink:href="#ad"/><use transform="matrix(0.04938271604938272,0,0,0.04938271604938272,23.60493827160494,0)" xlink:href="#ae"/></g><g id="V"><use transform="matrix(0.04938271604938272,0,0,0.04938271604938272,0,0)" xlink:href="#ao"/><use transform="matrix(0.04938271604938272,0,0,0.04938271604938272,9.876543209876544,0)" xlink:href="#af"/><use transform="matrix(0.04938271604938272,0,0,0.04938271604938272,14.814814814814817,0)" xlink:href="#ag"/></g><g id="W"><use transform="matrix(0.08641975308641976,0,0,0.08641975308641976,0,0)" xlink:href="#bo"/><use transform="matrix(0.08641975308641976,0,0,0.08641975308641976,17.802469135802472,0)" xlink:href="#az"/><use transform="matrix(0.08641975308641976,0,0,0.08641975308641976,28.08641975308642,0)" xlink:href="#bl"/><use transform="matrix(0.08641975308641976,0,0,0.08641975308641976,45.37037037037039,0)" xlink:href="#aQ"/><use transform="matrix(0.08641975308641976,0,0,0.08641975308641976,60.925925925925945,0)" xlink:href="#aw"/><use transform="matrix(0.08641975308641976,0,0,0.08641975308641976,69.56790123456791,0)" xlink:href="#aB"/><use transform="matrix(0.08641975308641976,0,0,0.08641975308641976,86.85185185185186,0)" xlink:href="#aA"/></g><g id="X"><use transform="matrix(0.08641975308641976,0,0,0.08641975308641976,0,0)" xlink:href="#aY"/><use transform="matrix(0.08641975308641976,0,0,0.08641975308641976,24.19753086419753,0)" xlink:href="#az"/><use transform="matrix(0.08641975308641976,0,0,0.08641975308641976,34.48148148148148,0)" xlink:href="#aE"/><use transform="matrix(0.08641975308641976,0,0,0.08641975308641976,51.76543209876543,0)" xlink:href="#aK"/><use transform="matrix(0.08641975308641976,0,0,0.08641975308641976,69.04938271604938,0)" xlink:href="#aD"/><use transform="matrix(0.08641975308641976,0,0,0.08641975308641976,86.33333333333333,0)" xlink:href="#aC"/><use transform="matrix(0.08641975308641976,0,0,0.08641975308641976,93.16049382716048,0)" xlink:href="#aQ"/><use transform="matrix(0.08641975308641976,0,0,0.08641975308641976,108.71604938271604,0)" xlink:href="#aK"/><use transform="matrix(0.08641975308641976,0,0,0.08641975308641976,126,0)" xlink:href="#aw"/><use transform="matrix(0.08641975308641976,0,0,0.08641975308641976,134.64197530864197,0)" xlink:href="#aC"/><use transform="matrix(0.08641975308641976,0,0,0.08641975308641976,141.46913580246914,0)" xlink:href="#ay"/><use transform="matrix(0.08641975308641976,0,0,0.08641975308641976,158.7530864197531,0)" xlink:href="#aD"/></g><g id="Y"><use transform="matrix(0.14814814814814817,0,0,0.14814814814814817,0,0)" xlink:href="#aF"/><use transform="matrix(0.14814814814814817,0,0,0.14814814814814817,38.370370370370374,0)" xlink:href="#bl"/><use transform="matrix(0.14814814814814817,0,0,0.14814814814814817,68,0)" xlink:href="#az"/><use transform="matrix(0.14814814814814817,0,0,0.14814814814814817,85.62962962962965,0)" xlink:href="#az"/><use transform="matrix(0.14814814814814817,0,0,0.14814814814814817,103.25925925925927,0)" xlink:href="#aB"/><use transform="matrix(0.14814814814814817,0,0,0.14814814814814817,132.8888888888889,0)" xlink:href="#aD"/><use transform="matrix(0.14814814814814817,0,0,0.14814814814814817,162.51851851851853,0)" xlink:href="#aL"/><use transform="matrix(0.14814814814814817,0,0,0.14814814814814817,189.18518518518522,0)" xlink:href="#bm"/></g><path fill="#333" d="M63-220v92h138v28H63V0H30v-248h175v28H63" id="bs"/><g id="Z"><use transform="matrix(0.08641975308641976,0,0,0.08641975308641976,0,0)" xlink:href="#bs"/><use transform="matrix(0.08641975308641976,0,0,0.08641975308641976,18.925925925925927,0)" xlink:href="#aB"/><use transform="matrix(0.08641975308641976,0,0,0.08641975308641976,36.20987654320988,0)" xlink:href="#aK"/><use transform="matrix(0.08641975308641976,0,0,0.08641975308641976,53.49382716049383,0)" xlink:href="#aw"/><use transform="matrix(0.08641975308641976,0,0,0.08641975308641976,62.13580246913581,0)" xlink:href="#bl"/><use transform="matrix(0.08641975308641976,0,0,0.08641975308641976,79.41975308641976,0)" xlink:href="#az"/><use transform="matrix(0.08641975308641976,0,0,0.08641975308641976,89.70370370370371,0)" xlink:href="#aB"/></g><path fill="#333" d="M106-169C34-169 62-67 57 0H25v-261h32l-1 103c12-21 28-36 61-36 89 0 53 116 60 194h-32v-121c2-32-8-49-39-48" id="bt"/><g id="aa"><use transform="matrix(0.08641975308641976,0,0,0.08641975308641976,0,0)" xlink:href="#bi"/><use transform="matrix(0.08641975308641976,0,0,0.08641975308641976,20.740740740740744,0)" xlink:href="#bt"/><use transform="matrix(0.08641975308641976,0,0,0.08641975308641976,38.0246913580247,0)" xlink:href="#ay"/><use transform="matrix(0.08641975308641976,0,0,0.08641975308641976,55.308641975308646,0)" xlink:href="#aD"/><use transform="matrix(0.08641975308641976,0,0,0.08641975308641976,72.5925925925926,0)" xlink:href="#aB"/></g><g id="ab"><use transform="matrix(0.04938271604938272,0,0,0.04938271604938272,0,0)" xlink:href="#as"/><use transform="matrix(0.04938271604938272,0,0,0.04938271604938272,10.814814814814815,0)" xlink:href="#al"/><use transform="matrix(0.04938271604938272,0,0,0.04938271604938272,20.69135802469136,0)" xlink:href="#am"/><use transform="matrix(0.04938271604938272,0,0,0.04938271604938272,26.567901234567902,0)" xlink:href="#al"/></g></defs></g></svg>